<svg version="1.1" id="Layer_1" xmlns="http://www.w3.org/2000/svg" xmlns:xlink="http://www.w3.org/1999/xlink" x="0px" y="0px"
	 width="100%" viewBox="0 0 688 576" enable-background="new 0 0 688 576" xml:space="preserve">
<path fill="#000000" opacity="1.000000" stroke="none" 
	d="
M413.429688,269.789001 
	C417.368988,290.462250 418.112488,310.841156 415.699402,331.311798 
	C414.057404,345.241180 411.462402,358.931152 404.975006,371.603729 
	C394.687103,391.700256 377.782166,401.366943 355.786865,403.354218 
	C341.923828,404.606750 328.585938,402.112549 315.474426,398.066498 
	C298.976929,392.975555 288.709015,381.097046 282.047455,365.867065 
	C276.810944,353.895020 274.538055,341.306854 273.695679,328.119324 
	C273.026367,317.641266 272.353760,307.146027 273.219025,296.805725 
	C274.385498,282.866852 274.645294,268.835052 278.884583,255.112762 
	C285.393829,234.042847 299.687592,221.618896 319.672333,214.669785 
	C341.984802,206.911316 363.941193,206.918671 384.456787,219.883453 
	C399.186432,229.191833 406.612946,243.853317 411.181885,260.150787 
	C412.033722,263.189362 412.645050,266.295410 413.429688,269.789001 
M327.976959,292.706329 
	C328.250580,288.218506 328.392944,283.717896 328.829102,279.245941 
	C329.460236,272.774933 330.496307,266.345734 332.993530,260.296295 
	C337.609192,249.114960 349.731018,245.051651 360.104614,251.138611 
	C362.045868,252.277725 363.635559,253.998016 363.632324,256.305267 
	C363.618500,266.193176 367.447998,275.536407 367.524933,285.458710 
	C367.550201,288.719910 366.852783,292.832794 370.067444,295.597168 
	C376.014069,291.105865 378.536499,287.571198 381.160400,282.277344 
	C383.766846,277.018707 386.264069,271.900177 386.287415,265.810822 
	C386.298553,262.908478 388.543976,261.186279 391.397675,261.542145 
	C394.359985,261.911591 393.972351,264.643005 393.894196,266.734741 
	C393.826508,268.546722 393.421722,270.366608 392.991272,272.140594 
	C391.893982,276.662659 392.957184,281.089447 393.571320,285.512238 
	C393.824554,287.335968 394.891937,289.052673 396.917633,289.497955 
	C399.052734,289.967316 399.710175,288.162354 400.542419,286.731598 
	C400.858795,286.187683 401.089264,285.478027 402.909271,286.076294 
	C406.388092,320.777496 405.572449,354.880127 384.489838,385.559021 
	C394.503723,379.045563 399.789948,369.372833 403.449158,358.713226 
	C410.773163,337.377502 411.392487,315.272827 410.250244,293.052917 
	C409.520630,278.858826 407.264832,264.907104 401.876404,251.628082 
	C392.182068,227.737762 373.277069,215.315338 347.800262,216.081009 
	C345.992645,216.135330 343.978729,215.802322 342.626373,217.354187 
	C339.225067,221.257324 334.709656,220.788910 330.598145,219.838303 
	C326.879852,218.978607 323.740021,219.519165 320.464539,220.949768 
	C305.650452,227.419937 297.186829,239.390106 292.179321,254.120544 
	C284.125977,277.811127 284.596924,302.254578 286.337921,326.762085 
	C286.573151,330.073181 287.045135,333.375519 287.581024,336.653564 
	C287.822815,338.132874 288.444519,339.614319 290.317261,339.773499 
	C291.938354,339.911285 293.224823,339.224884 294.219055,337.964294 
	C295.284637,336.613251 295.621338,334.989105 296.049500,333.368286 
	C297.495972,327.892914 298.929413,322.410065 300.566864,316.990234 
	C302.305511,311.235596 307.008881,310.172333 311.098877,314.608887 
	C314.525299,318.325653 317.226807,322.466797 317.916779,327.686493 
	C318.152466,329.469360 318.352905,331.885010 319.519745,332.801025 
	C323.285126,335.757050 323.413544,339.988434 324.274963,343.969238 
	C325.127136,347.907166 326.127319,351.787842 328.345490,355.167419 
	C329.628937,357.122833 330.964996,359.456421 334.353394,358.891998 
	C334.250183,354.231354 331.552765,350.602295 330.660492,346.430359 
	C326.925598,328.967224 327.813904,311.304718 327.976959,292.706329 
M359.412842,274.053925 
	C358.592224,270.737091 358.560913,267.172058 356.675720,264.369019 
	C354.746735,263.958130 354.365936,266.768707 352.316620,265.675537 
	C350.348663,263.928589 350.302826,261.018402 348.988495,258.728973 
	C346.953491,255.184204 344.576599,255.000427 341.835022,257.736389 
	C338.381866,261.182465 337.000092,265.634186 336.267578,270.284180 
	C332.668640,293.129425 333.865051,316.044189 335.626373,338.932556 
	C336.005341,343.857300 337.279297,348.793640 340.154602,353.059875 
	C341.581757,355.177399 343.307495,357.381348 346.014526,357.064270 
	C348.338562,356.792084 349.101379,354.258209 349.915009,352.275604 
	C352.406067,346.205750 353.107208,339.757111 353.804840,333.310059 
	C355.436890,318.226929 354.945648,303.087189 355.074158,287.962708 
	C355.091949,285.867432 354.349335,282.895813 356.652863,282.084717 
	C360.818756,280.617767 359.804291,277.733521 359.412842,274.053925 
z"/>
<path fill="#000000" opacity="1.000000" stroke="none" 
	d="
M417.631683,334.325684 
	C416.177155,327.802032 419.648834,323.404053 422.733978,318.892120 
	C445.478973,285.628174 468.237396,252.373413 490.977203,219.105927 
	C492.256378,217.234528 494.083862,216.597382 496.116089,215.679108 
	C512.364502,208.337158 529.442505,213.751907 546.021423,212.036377 
	C550.684082,211.553909 552.019592,213.778809 552.005066,218.178665 
	C551.897644,250.657394 551.964844,283.136658 551.958801,315.615753 
	C551.957458,322.806946 551.923889,322.806976 559.117065,322.788635 
	C571.973938,322.755920 571.972839,322.755890 571.975891,335.744263 
	C571.977844,344.072266 571.880432,352.402191 572.032837,360.727478 
	C572.104919,364.665863 570.490601,366.144104 566.630493,365.792084 
	C563.320984,365.490234 559.973206,365.627991 556.655457,365.389099 
	C553.220154,365.141815 551.869446,366.531586 551.937927,370.009552 
	C552.098572,378.167969 552.046021,386.331512 552.008362,394.492615 
	C551.978760,400.897705 551.718750,401.126495 545.142151,401.133972 
	C530.984497,401.149994 516.826782,401.166626 502.669250,401.130035 
	C492.579895,401.103943 490.020996,398.541382 489.966248,388.484863 
	C489.933624,382.489044 489.628876,376.463165 490.119720,370.506256 
	C490.496948,365.928070 488.585876,365.195709 484.714447,365.383362 
	C467.075104,366.238251 449.414368,365.687256 431.770599,366.049438 
	C427.159393,366.144104 423.532227,363.936646 419.416046,362.951172 
	C417.371918,362.461761 417.551514,360.323425 417.543213,358.733612 
	C417.501526,350.750244 417.584290,342.766296 417.631683,334.325684 
M495.180878,232.625717 
	C490.514008,239.315750 485.840607,246.001221 481.181641,252.696762 
	C470.547852,267.978882 460.217621,283.438873 452.114868,300.278625 
	C450.788696,303.034729 451.154602,305.454620 452.220825,307.936066 
	C454.511719,313.267670 456.526306,318.699127 460.049347,323.476257 
	C462.775208,327.172363 464.645538,327.795929 467.069153,324.061249 
	C476.667755,309.270172 487.933655,295.510315 495.380157,279.389404 
	C497.526520,274.742767 500.313629,273.747192 504.687347,275.485565 
	C504.418304,278.048462 504.175446,280.355133 503.934082,282.661926 
	C502.508545,296.287201 503.138336,309.958710 503.090332,323.611816 
	C503.077942,327.133270 502.305511,329.028259 498.256012,329.484192 
	C491.340942,330.262665 485.686646,332.920074 483.366943,340.604767 
	C482.385498,343.856201 482.637207,345.579041 485.365662,347.192078 
	C489.670105,349.736816 493.724670,352.630219 497.717102,355.652649 
	C501.541718,358.548004 503.630341,361.850494 503.207306,366.853302 
	C502.843719,371.153503 503.133636,375.511200 503.182129,379.842957 
	C503.200684,381.502075 503.112152,383.314423 505.129303,384.018799 
	C507.146851,384.723389 508.714203,383.739288 510.038605,382.370300 
	C512.533142,379.791840 513.720947,376.468506 515.080200,373.246765 
	C516.243164,370.490265 517.205078,367.613678 518.675476,365.028870 
	C522.742615,357.879211 522.756042,357.503876 516.437256,352.294159 
	C511.755157,348.433960 510.625305,344.056030 513.306580,338.597717 
	C515.801392,333.518982 518.596863,328.586578 521.310852,323.617584 
	C522.378174,321.663513 523.779175,320.297913 526.250427,319.891968 
	C532.226746,318.910309 534.918823,315.778809 535.023743,309.775970 
	C535.128540,303.780762 535.074219,297.776947 534.876099,291.783997 
	C534.712280,286.828522 533.683533,281.881073 529.379456,278.897766 
	C521.936279,273.738556 517.341736,265.583862 509.518433,260.806366 
	C505.340851,258.255219 504.237518,254.001038 506.391876,249.411880 
	C508.798096,244.286331 511.018738,239.129242 512.849792,233.741562 
	C514.773132,228.082397 519.565002,226.683380 523.926147,229.746521 
	C533.061829,236.163177 534.420105,235.538361 536.270630,224.240662 
	C536.546936,222.553711 536.055542,221.285065 534.917480,220.195892 
	C532.347534,217.736359 512.931885,217.769287 510.899170,220.746216 
	C508.358185,224.467560 506.186401,227.487198 501.089844,225.277924 
	C500.684479,225.102203 499.483002,226.298660 498.916412,227.055664 
	C497.721771,228.651855 496.702789,230.379517 495.180878,232.625717 
M545.619751,250.500031 
	C545.623352,241.012543 545.611145,231.525024 545.641479,222.037613 
	C545.649170,219.634598 544.800232,218.281708 542.145447,218.338028 
	C539.632812,218.391357 539.104309,219.907135 539.075623,221.945862 
	C539.054565,223.443436 539.045532,224.941422 539.052490,226.439102 
	C539.132385,243.582687 539.606201,260.735687 539.191772,277.867218 
	C538.758728,295.768219 540.307617,313.695312 538.404358,331.575500 
	C538.199951,333.495911 539.290955,335.298248 541.407349,335.594849 
	C543.914185,335.946136 544.829590,333.706726 544.590942,332.058502 
	C543.936401,327.537933 545.800842,323.372040 545.753784,318.910522 
	C545.516907,296.442383 545.628784,273.970581 545.619751,250.500031 
M565.650208,332.953094 
	C565.624451,331.249969 565.649292,329.456970 563.355408,329.217682 
	C561.880920,329.063873 560.115784,328.835205 559.354126,330.459686 
	C558.012512,333.321228 555.364319,333.508392 552.853760,334.388123 
	C549.557983,335.543060 545.358215,336.034729 545.042480,340.862000 
	C544.814697,344.344086 544.850220,347.816284 546.663879,350.821777 
	C548.639709,350.821777 550.440552,350.670105 552.206238,350.854767 
	C555.433899,351.192291 558.664124,351.762970 559.155396,355.878540 
	C559.420410,358.098663 560.005798,359.772339 562.738586,359.574219 
	C566.011292,359.336884 565.611267,356.889984 565.627136,354.791870 
	C565.680054,347.813049 565.652466,340.833588 565.650208,332.953094 
M543.979309,361.070770 
	C539.734253,360.747284 539.503906,363.912201 538.967102,366.824982 
	C538.421875,369.783325 538.814941,372.890015 534.468872,374.011383 
	C531.308411,374.826874 530.873047,382.381104 533.819275,383.178253 
	C538.748840,384.512054 539.409668,387.637939 539.288086,391.742523 
	C539.226746,393.813171 540.337830,394.679047 542.382141,394.711670 
	C544.523376,394.745819 545.309509,393.783142 545.321228,391.704620 
	C545.361450,384.575226 545.576416,377.446228 545.561646,370.317413 
	C545.555542,367.388489 546.292053,364.311951 543.979309,361.070770 
M483.113831,311.573029 
	C481.361938,314.843384 478.264313,317.414764 477.690613,321.672760 
	C481.352600,323.371399 484.983032,322.866150 488.573242,322.526489 
	C489.642975,322.425262 490.588440,321.602509 490.526123,320.562042 
	C490.149445,314.273651 492.243530,307.932648 490.377136,300.821472 
	C487.763855,304.671570 485.629120,307.816650 483.113831,311.573029 
M536.570068,362.668427 
	C537.919739,360.964386 538.635498,358.723938 536.898926,357.390198 
	C534.650940,355.663727 532.047546,356.819458 529.365906,358.137695 
	C531.100769,360.859009 532.500183,363.338898 536.570068,362.668427 
z"/>
<path fill="#000000" opacity="1.000000" stroke="none" 
	d="
M176.951782,239.975586 
	C181.379578,233.490524 185.681717,227.352844 189.819107,221.106033 
	C193.766998,215.145355 200.060989,212.667801 206.356689,212.295685 
	C219.473511,211.520370 232.669846,212.195267 245.827621,211.953827 
	C250.709961,211.864227 252.101151,213.795868 252.078568,218.439713 
	C251.921310,250.761002 251.967758,283.083252 251.938660,315.405212 
	C251.931976,322.829742 251.914825,322.733032 259.386719,322.825958 
	C273.618195,323.002899 272.086121,320.353119 272.168304,335.441742 
	C272.214600,343.938416 272.081970,352.436768 272.198975,360.932068 
	C272.245941,364.339844 271.042786,365.750793 267.503601,365.510956 
	C263.522400,365.241180 259.507263,365.517914 255.513016,365.379700 
	C252.688858,365.281952 251.781204,366.356812 251.852753,369.219971 
	C252.073349,378.045349 251.896027,386.880432 252.102402,395.706421 
	C252.196243,399.719299 250.845932,401.324097 246.619598,401.267273 
	C231.960846,401.070099 217.297440,401.253845 202.636414,401.176941 
	C192.840698,401.125549 190.017593,398.217041 190.021088,388.484009 
	C190.023239,382.486694 189.747375,376.457153 190.279266,370.503082 
	C190.650696,366.345093 189.335373,365.291260 185.428452,365.357269 
	C167.609024,365.658325 149.781158,365.564148 131.967682,366.038513 
	C127.379654,366.160706 123.647842,364.160034 119.526146,363.129181 
	C117.613297,362.650757 117.692062,360.958099 117.681305,359.474548 
	C117.607635,349.312164 117.604225,339.149200 117.497475,328.987213 
	C117.472366,326.596802 118.837357,324.936615 120.048820,323.164978 
	C138.945129,295.531342 157.850708,267.904022 176.951782,239.975586 
M192.288483,236.757874 
	C188.161728,242.813751 183.780441,248.713837 179.959076,254.956650 
	C170.895615,269.763306 158.796387,282.632965 152.706177,299.373169 
	C148.803314,310.100983 150.100967,317.265625 159.197784,324.388580 
	C162.489471,326.966003 165.349335,327.300232 167.939346,323.281403 
	C177.404907,308.594116 188.390396,294.853729 195.810806,278.899353 
	C197.785431,274.653778 200.586670,273.892609 204.735306,275.464966 
	C204.499466,278.375153 204.316391,281.165710 204.040497,283.947052 
	C202.803711,296.415070 203.388336,308.920105 203.252594,321.410126 
	C203.170731,328.942139 203.193176,328.925690 195.814789,329.139557 
	C193.675049,329.201599 191.489670,328.959320 189.553436,330.334503 
	C184.524139,333.906525 179.775757,337.828644 175.372940,342.128540 
	C172.140762,345.285156 172.464813,347.221161 176.403824,349.555237 
	C179.260056,351.247742 182.894501,352.068787 185.091705,354.335297 
	C189.084183,358.453644 193.721512,359.681946 199.015656,359.431915 
	C202.380692,359.272949 203.316437,360.785187 203.319641,363.893707 
	C203.324417,368.548767 203.785736,373.201660 203.882263,377.859009 
	C203.943832,380.828552 205.514343,382.132111 208.094345,383.269226 
	C214.043076,385.891144 220.414688,387.481506 226.225494,390.198456 
	C230.635773,392.260529 234.842789,393.993469 239.678818,394.569672 
	C243.862045,395.068115 245.905060,394.165649 245.761902,389.427582 
	C245.510345,381.103699 245.822998,372.764252 245.705276,364.434052 
	C245.657684,361.065826 246.818054,359.471375 250.325668,359.660706 
	C253.959839,359.856903 257.562408,358.825348 261.258484,359.572510 
	C264.203247,360.167847 265.955627,359.029175 265.888306,355.553741 
	C265.743073,348.057892 265.795135,340.556274 265.891296,333.058594 
	C265.931366,329.933441 264.380859,328.758331 261.557220,329.183685 
	C258.384888,329.661560 255.228470,329.033173 252.103317,329.253876 
	C246.970734,329.616364 245.601166,327.407990 245.628647,322.493988 
	C245.803925,291.165802 245.735077,259.836090 245.664032,228.507065 
	C245.656982,225.397110 246.897675,221.773453 244.873642,219.276123 
	C242.678467,216.567673 239.616241,219.907196 236.949066,219.545609 
	C227.472717,218.260925 217.957779,219.648224 208.488617,218.961487 
	C206.036530,218.783646 204.379883,219.412933 203.003464,221.430878 
	C199.626740,226.381439 196.135269,231.253723 192.288483,236.757874 
M179.552368,316.959259 
	C178.800919,318.687134 176.793198,319.878387 177.318222,322.680389 
	C181.419617,322.680389 185.547333,322.954956 189.621643,322.606110 
	C194.031891,322.228485 196.550919,319.265106 196.697311,314.985962 
	C196.956055,307.422791 196.769791,299.844421 196.769791,291.246002 
	C191.765533,300.819580 184.923843,307.950531 179.552368,316.959259 
z"/>
<path fill="#000000" opacity="1.000000" stroke="none" 
	d="
M250.000000,492.177673 
	C211.510681,492.169525 173.521362,492.163055 135.532043,492.150543 
	C128.388870,492.148193 128.115646,491.872650 128.111450,484.941162 
	C128.100037,466.113159 128.079330,447.285156 128.084396,428.457153 
	C128.086258,421.536407 128.575195,420.997894 135.402786,420.997284 
	C272.364136,420.985107 409.325500,420.986511 546.286865,421.001862 
	C552.717346,421.002563 553.150940,421.463074 553.156738,427.776611 
	C553.174316,446.937836 553.166382,466.099091 553.151184,485.260315 
	C553.146057,491.712952 552.688049,492.154266 546.416992,492.154694 
	C447.777985,492.161743 349.139008,492.169586 250.000000,492.177673 
M547.368713,427.288544 
	C545.424622,425.386505 542.960632,426.104431 540.714905,426.103149 
	C497.400787,426.078156 454.086639,426.126923 410.772522,426.124084 
	C320.645813,426.118164 230.519119,426.089233 140.392410,426.075928 
	C133.226700,426.074860 133.201935,426.097168 133.193893,433.271881 
	C133.176682,448.598419 133.187698,463.924927 133.187256,479.251465 
	C133.187027,487.090393 133.187149,487.098297 141.239227,487.098083 
	C272.181152,487.094849 403.123077,487.089783 534.065002,487.082703 
	C537.230164,487.082520 540.397339,486.977173 543.559937,487.059937 
	C546.732056,487.142944 548.046448,485.732758 548.020569,482.558441 
	C547.872498,464.405853 547.810059,446.252533 547.368713,427.288544 
z"/>
<path fill="#000000" opacity="1.000000" stroke="none" 
	d="
M247.000000,130.803070 
	C275.990082,130.805649 304.480133,130.820251 332.970215,130.802689 
	C339.567810,130.798630 339.607269,130.739532 339.633667,124.067307 
	C339.662689,116.736694 339.580078,109.405403 339.645599,102.075294 
	C339.667969,99.573936 338.985107,97.800049 336.822937,96.169884 
	C332.132080,92.633270 331.631348,87.115685 335.224274,83.128326 
	C338.586975,79.396477 344.013794,79.154282 347.721619,82.570587 
	C351.867828,86.390778 351.970886,91.652557 347.353455,95.624771 
	C344.751556,97.863113 343.938293,100.191582 343.996338,103.396797 
	C344.126007,110.558380 344.216370,117.732185 343.932983,124.885574 
	C343.753540,129.415039 345.290497,130.941925 349.928406,130.910263 
	C377.750763,130.720276 405.575043,130.805069 433.398651,130.801956 
	C441.034271,130.801102 441.206543,130.976135 441.218140,138.688889 
	C441.225891,143.853729 441.468567,149.034775 441.138947,154.178619 
	C440.847961,158.719879 442.705963,159.767883 446.958374,159.738953 
	C471.115387,159.574631 495.274231,159.674423 519.432434,159.687302 
	C526.391785,159.691010 526.797729,160.199402 526.722046,166.981613 
	C526.645935,173.805267 526.983398,180.638107 526.746643,187.453262 
	C526.643738,190.414246 528.667114,191.369553 530.222107,193.015213 
	C533.263367,196.233749 534.239868,199.876617 531.647461,203.895386 
	C529.333557,207.482407 525.011780,208.927597 521.205261,207.345901 
	C516.930115,205.569458 515.228943,202.264862 515.758301,197.756668 
	C515.958374,196.052460 516.590576,194.244934 517.982056,193.415100 
	C521.984985,191.027771 522.045166,187.381897 521.918030,183.431168 
	C521.768127,178.770981 521.714478,174.094284 521.935425,169.439774 
	C522.115112,165.653839 520.889099,164.085907 516.856750,164.109558 
	C493.199127,164.248337 469.540161,164.222855 445.882080,164.140213 
	C442.483521,164.128342 441.146942,165.294357 441.159058,168.781555 
	C441.248962,194.605515 441.255371,220.430130 441.147003,246.253937 
	C441.134369,249.257156 442.917969,250.580231 444.752747,252.314941 
	C447.731445,255.131271 448.275055,258.754364 446.553925,262.399292 
	C444.804993,266.103027 441.548767,267.730652 437.506622,267.202820 
	C433.398834,266.666504 430.935547,264.025421 430.134674,260.068939 
	C429.404846,256.463104 430.812836,253.367233 433.800293,251.399719 
	C436.110016,249.878540 436.623108,247.971924 436.619110,245.492737 
	C436.579163,220.841202 436.625641,196.189484 436.546722,171.538132 
	C436.524170,164.494598 436.084930,164.180084 429.187592,164.175644 
	C401.530579,164.157898 373.873535,164.168976 346.216522,164.143723 
	C339.882782,164.137939 339.676636,163.899948 339.653687,157.767746 
	C339.631866,151.936539 339.530914,146.102829 339.666412,140.274918 
	C339.737610,137.211777 338.957642,135.844437 335.482605,135.851395 
	C280.668610,135.961060 225.854340,135.958389 171.040192,135.915909 
	C167.514786,135.913177 165.885376,137.059860 165.921677,140.821182 
	C166.048676,153.981979 166.004318,167.144974 165.934204,180.306656 
	C165.921539,182.683807 166.778137,184.261627 168.582565,185.838287 
	C173.067551,189.757141 173.398132,195.202591 169.698486,198.951096 
	C166.094742,202.602432 160.316818,202.420013 156.787643,198.543488 
	C153.256836,194.665176 153.781174,189.135681 158.530731,185.487442 
	C160.805176,183.740372 160.951645,181.757355 160.951035,179.402542 
	C160.947372,165.407455 160.935303,151.412308 160.972076,137.417313 
	C160.987946,131.382980 161.559280,130.815689 167.530258,130.811752 
	C193.853500,130.794388 220.176758,130.803711 247.000000,130.803070 
M343.989471,151.412186 
	C344.854614,154.395813 341.627350,159.612366 348.003418,159.631653 
	C375.944305,159.716202 403.885712,159.616425 431.826752,159.672256 
	C435.195007,159.678986 436.160492,158.078873 436.106018,155.068497 
	C436.024811,150.579605 435.744812,146.051636 436.201050,141.607178 
	C436.701782,136.729309 434.630981,135.802322 430.268066,135.831497 
	C406.319519,135.991623 382.369324,135.897903 358.419678,135.896576 
	C344.017914,135.895782 344.017914,135.900070 343.989471,151.412186 
M526.423157,202.719162 
	C528.419861,200.619324 528.698792,198.360962 526.634216,196.236710 
	C525.370422,194.936386 523.665649,194.887589 522.133972,195.929733 
	C520.482666,197.053314 519.716797,198.720352 520.395752,200.621735 
	C521.298279,203.149323 523.100159,204.227386 526.423157,202.719162 
M342.843781,92.925644 
	C345.012878,91.868088 346.194153,90.223778 345.406799,87.790909 
	C344.856445,86.090324 343.476501,85.191208 341.641449,85.195923 
	C339.811615,85.200623 338.348419,86.087158 337.874298,87.789284 
	C336.859436,91.432907 338.962494,92.819496 342.843781,92.925644 
M441.767670,261.184021 
	C443.355530,258.938293 443.252411,256.891449 440.903992,255.270584 
	C439.413452,254.241821 437.804626,254.154953 436.410065,255.488251 
	C434.762939,257.063019 434.590271,259.003723 435.739075,260.850616 
	C437.153870,263.125183 439.139648,263.094696 441.767670,261.184021 
M167.266281,193.931885 
	C167.943710,191.266357 166.675034,189.735092 164.220947,189.203278 
	C162.233749,188.772644 160.583954,189.591110 159.717636,191.490128 
	C158.919205,193.240341 159.457825,194.836441 160.967438,195.885208 
	C163.338058,197.532135 165.341339,196.800461 167.266281,193.931885 
z"/>
<path fill="#000000" opacity="1.000000" stroke="none" 
	d="
M144.000000,118.994308 
	C136.172546,118.979706 128.836685,119.181526 121.519737,118.897148 
	C111.976585,118.526268 104.397354,111.867134 102.892105,103.007393 
	C101.489815,94.753723 105.939323,86.598907 113.796928,83.026062 
	C114.099724,82.888382 114.425842,82.636795 114.718445,82.665901 
	C123.116966,83.501503 125.197601,76.844818 128.806274,71.418724 
	C139.376251,55.525368 164.506241,55.391243 176.022537,71.121109 
	C178.658630,74.721672 180.655075,75.856880 185.299652,74.473198 
	C194.055405,71.864746 202.363556,73.984070 208.440887,81.070328 
	C214.248520,87.842148 215.999222,95.780403 212.401566,104.374725 
	C208.331100,114.098549 200.582870,118.693138 190.461853,118.911728 
	C175.147781,119.242477 159.821243,118.995811 144.000000,118.994308 
M182.364700,80.640999 
	C178.823151,83.672394 176.814499,82.586700 174.894531,78.548782 
	C169.422455,67.040321 157.239014,61.692867 145.248795,65.393021 
	C136.624298,68.054520 131.232681,74.092712 128.653732,82.631821 
	C127.850441,85.291573 127.040909,86.972290 123.583740,86.609741 
	C114.745552,85.682899 107.931206,91.104622 107.399109,99.002533 
	C106.833824,107.392891 113.254692,113.742737 122.605721,113.768547 
	C145.093918,113.830627 167.582474,113.814285 190.070755,113.765129 
	C198.723343,113.746223 205.198959,109.639992 207.958984,102.658012 
	C210.524460,96.168098 208.863235,88.020607 203.771408,83.264610 
	C197.597382,77.497787 190.602554,76.644569 182.364700,80.640999 
z"/>
<path fill="#000000" opacity="1.000000" stroke="none" 
	d="
M620.759338,182.726547 
	C628.813904,185.174377 632.935913,190.684418 632.297058,197.744339 
	C631.637634,205.031326 626.322754,210.542358 618.241882,210.725983 
	C601.261108,211.111862 584.255005,211.238419 567.280701,210.740295 
	C556.544678,210.425217 549.308594,201.129089 550.759277,191.055527 
	C552.225952,180.870880 561.479675,174.956726 572.303162,177.564453 
	C575.046082,178.225296 576.423767,177.486816 578.114441,175.374924 
	C588.776306,162.056671 608.155701,164.105453 615.613953,179.335312 
	C616.718262,181.590317 617.894775,182.865372 620.759338,182.726547 
M555.237183,191.940384 
	C555.114685,200.455460 559.412109,205.704163 567.329407,205.798645 
	C584.292786,206.001099 601.260864,205.952911 618.225525,205.817520 
	C623.958801,205.771774 627.854126,201.698288 627.831970,196.471344 
	C627.809998,191.271271 623.782166,187.094604 618.180786,187.183029 
	C615.014954,187.233017 613.379944,186.428833 612.310364,183.323807 
	C609.805725,176.052399 604.556396,171.680115 596.821106,171.176208 
	C589.075623,170.671631 583.412659,174.383438 579.927612,181.257050 
	C578.530823,184.011948 577.073425,184.769226 574.042664,183.238144 
	C565.389648,178.866821 558.473328,181.912888 555.237183,191.940384 
z"/>
<path fill="#000000" opacity="1.000000" stroke="none" 
	d="
M54.004044,463.281189 
	C50.175076,463.279663 46.844841,463.300934 43.515053,463.271820 
	C32.497353,463.175476 24.524460,455.215729 25.425264,445.232147 
	C26.428587,434.112366 35.210892,427.563324 46.594845,430.019745 
	C49.890755,430.730957 51.341064,429.674988 53.230835,427.468933 
	C63.812241,415.116425 81.677177,416.686371 89.812744,430.704376 
	C91.350380,433.353821 93.069122,434.873810 96.150749,435.576141 
	C103.412941,437.231262 107.960129,443.686584 107.253815,450.604797 
	C106.503716,457.951935 100.787682,463.150146 92.964386,463.224854 
	C80.144913,463.347321 67.323547,463.272522 54.004044,463.281189 
M61.863754,426.171539 
	C58.801579,427.749207 56.352745,430.003235 55.080723,433.215332 
	C53.539257,437.107788 51.629807,437.688263 47.914024,435.406616 
	C43.226036,432.527985 38.087555,433.445343 34.063637,436.960419 
	C30.503321,440.070465 29.101227,445.563477 30.678360,450.222931 
	C32.323284,455.082672 36.652393,458.601379 41.936638,458.641418 
	C58.742458,458.768707 75.550591,458.770264 92.356323,458.634033 
	C98.404495,458.584991 102.652229,454.466187 102.642891,449.295135 
	C102.633080,443.864716 98.837891,440.184387 92.511116,440.071960 
	C89.483284,440.018158 88.157074,438.833618 87.095261,436.125824 
	C82.776947,425.113525 73.319725,421.229279 61.863754,426.171539 
z"/>
<path fill="#000000" opacity="1.000000" stroke="none" 
	d="
M590.720093,482.683228 
	C586.233765,479.445312 584.303711,475.393188 585.262207,470.317505 
	C586.252502,465.073486 589.482666,461.671387 594.757935,460.588470 
	C597.330505,460.060394 598.585510,458.535431 599.857239,456.389282 
	C606.475647,445.219513 621.257324,443.621887 630.049194,453.232330 
	C632.214539,455.599243 633.971436,456.327209 637.228943,455.846497 
	C646.744934,454.442291 654.098145,460.498322 654.485535,469.456421 
	C654.855469,478.010895 648.519775,484.321320 639.274902,484.377869 
	C625.612305,484.461487 611.948792,484.395660 598.285706,484.424408 
	C595.751892,484.429718 593.288818,484.242828 590.720093,482.683228 
M593.799011,479.163361 
	C609.730835,480.795288 625.696777,479.985565 641.640503,479.580353 
	C645.782227,479.475128 648.530762,476.301392 649.501099,472.218018 
	C650.420105,468.350525 649.273315,464.898315 646.183105,462.340668 
	C642.977661,459.687653 639.308960,458.794220 635.522156,460.945709 
	C632.825439,462.477844 630.873108,463.089630 629.068542,459.662811 
	C626.222534,454.258423 621.718506,450.968689 615.369019,451.443939 
	C608.913025,451.927185 604.639099,455.616333 602.491455,461.653900 
	C601.647217,464.027222 600.318298,465.189423 597.719910,465.058899 
	C593.993530,464.871674 591.296875,466.501312 589.959473,470.088593 
	C588.551880,473.864258 590.416687,476.471802 593.799011,479.163361 
z"/>
<path fill="#000000" opacity="1.000000" stroke="none" 
	d="
M93.000046,233.575745 
	C114.977615,233.585312 136.455170,233.595032 157.932724,233.606354 
	C159.264648,233.607056 160.598602,233.576736 161.927933,233.639252 
	C163.431305,233.709946 165.217972,233.703171 165.133133,235.830780 
	C165.054459,237.804108 163.334595,237.953812 161.814026,238.067978 
	C160.819794,238.142624 159.817398,238.121841 158.818665,238.122025 
	C117.861458,238.129395 76.904205,238.157272 35.947159,238.080017 
	C33.588890,238.075562 29.451096,239.373657 29.691303,235.451248 
	C29.885237,232.284500 33.815243,233.702286 36.059490,233.686615 
	C54.872349,233.555298 73.686371,233.590897 93.000046,233.575745 
z"/>
<path fill="#000000" opacity="1.000000" stroke="none" 
	d="
M643.000000,398.053375 
	C655.496521,398.060059 667.492981,398.065918 679.489502,398.075043 
	C680.655640,398.075928 681.834229,397.993866 682.985168,398.132141 
	C684.884583,398.360352 687.658508,398.028534 687.565796,400.746704 
	C687.472656,403.476349 684.713684,403.036591 682.812012,403.040131 
	C650.321594,403.100403 617.831177,403.123444 585.340698,403.121399 
	C583.384888,403.121277 580.620789,403.310272 580.547119,400.765411 
	C580.458557,397.706360 583.514587,398.110931 585.517090,398.102661 
	C604.511169,398.024445 623.505615,398.054535 643.000000,398.053375 
z"/>
<path fill="#000000" opacity="1.000000" stroke="none" 
	d="
M238.045776,520.957764 
	C240.640152,518.569763 243.290482,516.685730 246.759827,519.571106 
	C247.209900,519.945374 248.279709,520.287231 248.555649,520.051331 
	C252.811310,516.413147 257.651764,519.343140 261.834229,518.456787 
	C264.215485,520.656677 262.115662,524.004639 264.391815,525.993713 
	C267.448273,524.126404 264.494415,520.104065 267.431000,518.562866 
	C269.276276,518.006714 269.516418,520.009949 269.942780,520.162537 
	C277.037354,516.823792 285.045166,521.248718 290.774658,515.822815 
	C293.405243,517.490540 294.938934,518.989441 293.319397,522.037903 
	C292.519928,523.542786 293.010406,525.305176 294.721863,526.774780 
	C294.999603,527.000000 295.008606,527.014343 295.008606,527.014343 
	C294.772217,527.993103 294.240387,529.621399 293.465759,529.236084 
	C289.487671,527.257507 285.278992,530.004272 281.714630,528.953430 
	C280.362457,526.680603 282.896942,526.383972 282.681000,524.750366 
	C280.286621,522.247620 278.334991,526.138062 275.579315,524.980713 
	C276.893494,526.430664 278.790833,525.880493 279.078217,527.604126 
	C278.863861,530.237488 274.643219,529.970764 270.250702,527.046509 
	C266.112000,531.185547 261.782440,530.080139 259.435120,524.164551 
	C258.205017,527.090515 260.167999,530.729187 257.461670,533.205750 
	C252.644272,530.062500 249.177139,524.996277 241.342224,525.050049 
	C243.785843,526.717651 246.188843,525.505676 246.824051,527.898621 
	C245.078186,530.083679 242.759674,529.712341 240.716034,528.700684 
	C237.985321,527.348877 237.324951,524.780640 237.914185,521.443481 
	C238.001328,521.004089 238.045776,520.957764 238.045776,520.957764 
z"/>
<path fill="#000000" opacity="1.000000" stroke="none" 
	d="
M644.179199,423.828735 
	C619.271118,423.924774 594.783752,423.969238 570.296448,423.991211 
	C569.138428,423.992249 567.961548,423.887756 566.827393,423.661896 
	C565.608887,423.419159 564.622803,422.711609 564.649658,421.325684 
	C564.678101,419.854980 565.857849,419.413116 567.043762,419.248383 
	C568.356934,419.065918 569.696533,419.009583 571.024719,419.008881 
	C594.346802,418.996887 617.668884,419.000885 640.990967,419.006714 
	C641.989746,419.006958 642.995239,418.996277 643.985657,419.102081 
	C645.301941,419.242706 646.855225,419.305084 647.225952,420.890961 
	C647.698059,422.910400 646.116089,423.387268 644.179199,423.828735 
z"/>
<path fill="#000000" opacity="1.000000" stroke="none" 
	d="
M320.843506,527.683350 
	C320.859222,526.074890 320.780823,524.900269 320.909729,523.748779 
	C321.133606,521.748840 320.068054,519.036804 323.033813,518.305908 
	C326.032593,517.566895 329.148315,517.504578 330.962921,520.716370 
	C332.034027,522.612244 333.060730,523.740906 335.219299,522.011108 
	C335.542877,520.427979 333.022644,521.445129 333.347656,519.434204 
	C336.405182,516.470581 338.923370,518.815186 341.405396,521.329956 
	C344.678741,517.640564 348.439667,517.186157 352.218994,519.417297 
	C354.260010,520.622192 354.849426,518.717407 356.110138,518.357605 
	C359.077423,517.510742 361.067871,518.650574 362.170441,521.245972 
	C363.426971,524.203796 361.338013,525.024292 358.962677,525.438049 
	C359.526672,526.614929 361.704437,526.213257 361.319702,528.432739 
	C358.849152,530.331482 356.224030,529.114807 353.794525,528.185120 
	C351.892181,528.980774 351.793640,531.003723 350.491516,532.041931 
	C348.813080,533.380127 346.933289,533.869690 344.885071,533.295166 
	C342.692657,532.680237 343.778168,531.225281 343.838623,529.769531 
	C343.892456,528.473145 342.861603,526.753723 340.855591,528.051025 
	C337.440155,530.259949 334.306793,529.393311 331.311707,527.226257 
	C328.453918,529.332275 324.252167,529.259949 323.085754,533.355835 
	C320.071594,532.221558 321.116638,529.925659 320.843506,527.683350 
M348.566101,524.850647 
	C348.800934,523.296692 348.869904,521.582336 346.745941,521.699707 
	C345.262390,521.781738 344.565125,523.233337 345.040588,524.659790 
	C345.636658,526.448120 346.806854,526.968567 348.566101,524.850647 
M328.078857,524.773499 
	C328.196350,523.199890 328.199921,521.505981 326.059753,521.602234 
	C324.667755,521.664856 324.179901,522.992554 324.555023,524.239136 
	C325.082977,525.993652 326.129303,526.817810 328.078857,524.773499 
z"/>
<path fill="#000000" opacity="1.000000" stroke="none" 
	d="
M98.999451,254.011322 
	C104.816650,254.023712 110.135208,253.975266 115.450760,254.079895 
	C117.350502,254.117279 120.108589,253.752518 120.161011,256.458618 
	C120.213478,259.167664 117.485199,258.956665 115.565460,258.972046 
	C105.429672,259.053131 95.293137,259.053375 85.156853,259.058014 
	C73.358833,259.063446 61.560783,259.051147 49.762779,259.027740 
	C48.270676,259.024811 46.763309,259.018402 45.291328,258.811798 
	C43.924381,258.619995 42.645424,258.037659 42.747265,256.319366 
	C42.832684,254.878296 43.971901,254.397064 45.173351,254.271912 
	C46.821129,254.100311 48.486435,254.034607 50.144367,254.032532 
	C66.262772,254.012299 82.381210,254.014847 98.999451,254.011322 
z"/>
<path fill="#000000" opacity="1.000000" stroke="none" 
	d="
M87.488907,213.880188 
	C117.191925,213.804825 146.449875,213.793076 175.707840,213.785156 
	C176.538177,213.784943 177.372299,213.783417 178.197968,213.857254 
	C179.424957,213.967010 180.607040,214.364655 180.690689,215.786026 
	C180.790619,217.484329 179.494247,218.013870 178.091095,218.188782 
	C177.106415,218.311508 176.100586,218.289322 175.104187,218.289764 
	C147.009537,218.302277 118.914879,218.311295 90.820221,218.310944 
	C89.659142,218.310928 88.402237,218.484756 87.355179,218.112717 
	C84.362236,217.049240 83.933723,215.573685 87.488907,213.880188 
z"/>
<path fill="#000000" opacity="1.000000" stroke="none" 
	d="
M381.844025,529.026978 
	C380.167786,528.302917 379.397156,526.928711 377.263275,528.429443 
	C373.933807,530.770996 369.151184,529.447144 367.601776,526.615051 
	C365.829468,523.375488 367.191742,519.919373 371.697998,518.099243 
	C373.833984,517.236511 373.947632,514.881409 375.863586,514.088379 
	C379.055084,515.195740 376.924927,518.287476 378.434021,520.437317 
	C381.540253,518.184631 384.888031,517.077515 388.427521,519.894287 
	C389.548065,520.786133 390.584625,519.683899 391.535980,519.036865 
	C392.671204,518.264709 394.106995,517.472473 395.255188,518.169861 
	C397.905670,519.779663 400.141235,519.710388 402.962738,518.304016 
	C404.852966,517.361816 407.136780,518.116333 406.204590,521.277222 
	C405.954529,522.125061 405.894501,522.878235 406.365723,523.650635 
	C407.459076,525.442749 407.560333,527.219543 405.666199,528.455078 
	C403.917572,529.595642 402.003693,529.930725 400.337646,528.283386 
	C400.113770,526.197021 402.374146,526.944031 403.023621,525.865112 
	C400.249725,521.639465 397.350525,526.296997 394.433319,525.123657 
	C394.878296,527.338806 397.526459,525.865845 397.776276,528.900269 
	C392.607544,529.226318 387.199463,526.985168 381.844025,529.026978 
M383.204071,526.001160 
	C385.726044,526.414551 385.962616,524.840393 385.587250,523.045532 
	C385.322510,521.779541 384.233246,520.957947 383.031769,521.662903 
	C381.276917,522.692444 381.206329,524.197937 383.204071,526.001160 
z"/>
<path fill="#000000" opacity="1.000000" stroke="none" 
	d="
M214.882843,528.787842 
	C211.874619,527.027466 215.081421,523.418823 212.263367,521.556763 
	C208.645462,522.757812 211.321472,526.942627 208.212830,529.101929 
	C205.828430,525.470581 207.710480,521.304626 206.564163,517.818909 
	C202.566574,517.800049 202.600433,517.813782 202.352219,521.685730 
	C202.200790,524.047974 202.957535,526.575500 201.354370,529.093933 
	C198.212296,526.989685 199.537064,524.005493 199.653854,521.776733 
	C199.813049,518.738342 198.030136,517.429626 195.705643,515.876953 
	C200.097092,512.339783 204.860367,516.301758 209.233917,513.299194 
	C209.189316,519.523438 215.466705,517.268738 216.654144,521.237305 
	C219.543091,519.541565 221.508316,516.768799 224.716049,518.653442 
	C226.233810,519.545105 227.193100,520.935974 226.993164,522.779724 
	C226.756516,524.961853 224.873779,525.023499 223.186005,525.424500 
	C223.638199,526.749634 226.258606,526.038635 225.712845,528.323364 
	C222.463181,531.703247 218.563797,526.039307 214.882843,528.787842 
z"/>
<path fill="#000000" opacity="1.000000" stroke="none" 
	d="
M114.127289,392.998840 
	C116.972336,391.565216 118.475739,386.107697 121.758606,389.100525 
	C124.466446,391.569183 119.972687,393.654816 118.470505,395.714966 
	C117.229645,397.416748 117.221016,398.628754 118.587914,400.076874 
	C119.730515,401.287384 120.856003,402.521698 121.891403,403.823181 
	C122.653763,404.781433 123.068459,405.931793 122.104080,406.998810 
	C120.964203,408.260010 119.629761,407.912201 118.544090,406.978149 
	C116.667213,405.363434 114.914627,403.604248 113.140793,401.934723 
	C110.251732,402.635254 109.141907,405.150360 107.210503,406.625824 
	C106.083099,407.487061 104.924995,408.209747 103.665627,407.014801 
	C102.359596,405.775635 103.125694,404.580048 104.015556,403.511536 
	C104.653709,402.745209 105.308891,401.956390 106.092224,401.354126 
	C109.165421,398.991119 108.838593,396.771545 105.964691,394.538269 
	C105.443619,394.133270 104.995308,393.619049 104.572304,393.106628 
	C103.533226,391.848053 101.950531,390.556274 103.664192,388.855103 
	C105.269501,387.261475 106.565414,388.567566 108.000473,389.551880 
	C109.887642,390.846252 110.527489,394.221771 114.127289,392.998840 
z"/>
<path fill="#000000" opacity="1.000000" stroke="none" 
	d="
M602.932129,378.635742 
	C606.245056,378.612518 609.070007,378.573944 611.894958,378.572083 
	C613.700500,378.570892 616.061157,378.235962 615.969360,380.885254 
	C615.884949,383.321777 613.580261,383.241760 611.747559,383.254456 
	C606.596191,383.290131 601.444519,383.274292 596.292969,383.281342 
	C587.983948,383.292725 579.673401,383.397461 571.366821,383.261230 
	C568.977661,383.222046 564.860413,384.513092 564.964294,380.820435 
	C565.067932,377.137390 569.197937,378.748260 571.536011,378.707245 
	C581.835999,378.526428 592.140991,378.633301 602.932129,378.635742 
z"/>
<path fill="#000000" opacity="1.000000" stroke="none" 
	d="
M229.023010,167.141327 
	C229.756134,163.958603 227.088242,159.030716 231.522781,158.998627 
	C235.204285,158.971985 233.831589,163.798737 233.888321,166.528290 
	C234.070862,175.309372 233.940689,184.097076 233.919571,192.882187 
	C233.916382,194.207443 233.994125,195.556168 233.779709,196.851883 
	C233.502411,198.527618 233.834473,201.024734 231.214523,200.868607 
	C229.093597,200.742218 229.160126,198.584610 229.067276,196.954849 
	C228.963669,195.136490 228.993347,193.309555 228.994247,191.486374 
	C228.998138,183.529968 229.012619,175.573563 229.023010,167.141327 
z"/>
<path fill="#000000" opacity="1.000000" stroke="none" 
	d="
M124.821320,172.669464 
	C126.179413,174.308685 127.417007,175.653534 128.663895,176.989731 
	C129.808334,178.216141 131.323334,179.530685 129.829025,181.245163 
	C128.236771,183.072006 126.865211,181.513184 125.610054,180.441330 
	C125.104958,180.009964 124.603371,179.550339 124.201935,179.025711 
	C121.801857,175.889145 119.451851,175.935837 116.987465,178.983673 
	C116.263680,179.878830 115.320854,180.614395 114.408417,181.334381 
	C113.570831,181.995316 112.609749,182.244217 111.691986,181.442764 
	C110.618156,180.505020 110.730415,179.405838 111.398514,178.301407 
	C111.654678,177.877975 111.944756,177.421219 112.335197,177.141052 
	C116.942413,173.835571 117.240509,170.585358 112.439537,167.118942 
	C111.262161,166.268860 110.042618,164.767166 111.345497,163.279709 
	C112.882950,161.524429 114.299873,162.867722 115.589134,164.012177 
	C117.186073,165.429749 118.411407,167.305405 120.755676,168.218704 
	C121.699097,167.417984 122.664040,166.531952 123.698318,165.735992 
	C125.500000,164.349442 127.034088,160.641266 129.642807,163.249451 
	C132.015518,165.621704 128.428513,167.066696 127.161659,168.762451 
	C126.288429,169.931320 124.776779,170.656799 124.821320,172.669464 
z"/>
<path fill="#000000" opacity="1.000000" stroke="none" 
	d="
M617.748352,357.993591 
	C613.964722,357.042511 614.674805,355.019684 616.640930,353.434601 
	C620.725098,350.141876 621.626709,347.133575 616.911804,343.632843 
	C615.671326,342.711792 614.059265,341.130890 615.570801,339.435822 
	C617.384277,337.402130 618.795105,339.364624 620.137390,340.512726 
	C621.634094,341.792725 622.699768,343.591370 624.749023,344.336121 
	C627.268372,343.578583 628.484009,341.182312 630.407898,339.665924 
	C631.542786,338.771454 632.706848,338.132812 633.918945,339.391388 
	C635.100830,340.618561 634.568848,341.859253 633.609253,342.933258 
	C632.069641,344.656372 630.472717,346.328308 628.911438,348.009613 
	C629.435974,350.709564 631.833008,351.707703 633.183533,353.511261 
	C634.095642,354.729431 635.320618,355.931183 633.935669,357.420532 
	C632.516479,358.946777 631.216248,357.849609 630.072021,356.827637 
	C628.476074,355.402283 626.924500,353.927246 625.380798,352.498291 
	C622.045837,353.383362 620.869080,356.711945 617.748352,357.993591 
z"/>
<path fill="#000000" opacity="1.000000" stroke="none" 
	d="
M50.000252,213.757721 
	C57.971691,213.763474 65.443336,213.744431 72.914513,213.795456 
	C74.525070,213.806442 76.725670,213.613998 76.810059,215.842697 
	C76.908974,218.454956 74.536949,218.273972 72.764862,218.278870 
	C59.648376,218.315125 46.531715,218.301666 33.415154,218.279282 
	C31.750263,218.276443 29.659843,218.313843 29.548376,216.132751 
	C29.406126,213.349319 31.857021,213.830170 33.561523,213.803925 
	C38.873421,213.722076 44.187225,213.764069 50.000252,213.757721 
z"/>
<path fill="#000000" opacity="1.000000" stroke="none" 
	d="
M294.993073,526.994019 
	C294.529358,519.241943 296.064484,518.226440 304.083832,519.416077 
	C308.187988,520.024780 311.370789,517.364258 314.261627,513.156189 
	C315.895264,518.611755 315.524902,523.189880 314.878479,527.667786 
	C314.566620,529.828003 312.055817,529.389771 310.645599,529.188782 
	C307.269531,528.707642 304.029175,528.223877 300.625000,529.262878 
	C298.800507,529.819763 297.108521,528.581787 295.322876,527.218018 
	C295.008606,527.014343 294.999603,527.000000 294.993073,526.994019 
M311.501068,522.302490 
	C309.625763,520.653503 308.882751,521.950867 308.509491,523.577515 
	C308.276367,524.593567 308.764954,525.843384 309.797729,525.950867 
	C312.142731,526.195068 311.753204,524.361755 311.501068,522.302490 
z"/>
<path fill="#000000" opacity="1.000000" stroke="none" 
	d="
M463.067596,518.659119 
	C461.325195,522.178711 461.481842,525.492615 463.368622,529.126465 
	C458.987030,526.475403 455.139191,529.738403 451.086700,529.407959 
	C448.580078,529.203430 446.399628,528.712891 445.301331,526.311951 
	C444.238403,523.988220 444.718628,521.731445 446.448395,519.841492 
	C448.264587,517.857117 450.241882,518.410889 452.729767,518.745605 
	C455.975372,519.182373 459.538422,519.644165 463.067596,518.659119 
z"/>
<path fill="#000000" opacity="1.000000" stroke="none" 
	d="
M651.905090,383.256409 
	C642.950745,383.265564 634.480530,383.307648 626.010803,383.258331 
	C623.962463,383.246399 620.897583,383.770660 620.961975,380.810883 
	C621.030029,377.680206 624.210266,378.717865 626.144836,378.695465 
	C635.610107,378.585907 645.077881,378.586700 654.543396,378.681946 
	C656.508850,378.701691 659.750000,377.754608 659.815186,380.737427 
	C659.888916,384.113770 656.494263,382.959991 654.380737,383.235687 
	C653.727173,383.320892 653.053711,383.253326 651.905090,383.256409 
z"/>
<path fill="#000000" opacity="1.000000" stroke="none" 
	d="
M376.354584,179.888092 
	C376.436981,189.077240 376.409729,197.887421 376.311462,206.696838 
	C376.295044,208.169052 376.227356,209.973495 374.082611,209.860886 
	C372.448853,209.775101 371.954315,208.300903 371.942810,206.945724 
	C371.869202,198.291656 371.714539,189.632004 371.965393,180.985184 
	C372.043243,178.301208 373.724030,176.909912 376.354584,179.888092 
z"/>
<path fill="#000000" opacity="1.000000" stroke="none" 
	d="
M491.181335,198.822113 
	C490.575348,201.764374 492.735199,206.209763 488.675629,206.164352 
	C484.935852,206.122543 486.301941,201.731979 486.193909,199.159363 
	C485.998901,194.514709 486.162537,189.850494 486.308777,185.198608 
	C486.355804,183.702560 486.751831,181.909897 488.618530,181.842804 
	C490.842163,181.762894 491.162964,183.633255 491.179443,185.375229 
	C491.220337,189.699554 491.187714,194.024551 491.181335,198.822113 
z"/>
<path fill="#000000" opacity="1.000000" stroke="none" 
	d="
M469.875488,519.804382 
	C472.455353,516.719177 476.855560,519.658813 478.989624,515.807983 
	C480.433105,517.174377 481.578278,518.258484 482.967072,519.573120 
	C476.358795,525.894287 483.074188,526.233582 488.296600,527.534912 
	C479.174164,530.398743 478.737000,530.248291 477.071198,523.083557 
	C476.458923,520.450073 475.186523,520.971985 473.398254,521.733643 
	C474.514465,523.603516 477.510956,524.783142 475.573914,527.572205 
	C474.059540,529.752808 472.035583,529.484924 470.090179,528.813904 
	C469.101624,526.703796 471.085968,526.869385 471.740479,525.869141 
	C471.375610,523.923279 467.844086,522.885803 469.875488,519.804382 
z"/>
<path fill="#000000" opacity="1.000000" stroke="none" 
	d="
M240.867691,178.254196 
	C244.203690,181.059967 242.647995,184.581909 242.834396,187.730270 
	C243.048431,191.345734 242.795822,194.994629 242.628098,198.623550 
	C242.574631,199.780502 242.156372,200.973099 240.725861,201.182175 
	C239.279846,201.393524 238.396713,200.415314 238.320862,199.237701 
	C237.896835,192.655960 237.542664,186.058701 238.579346,179.499130 
	C238.708496,178.681839 239.577789,178.235733 240.867691,178.254196 
z"/>
<path fill="#000000" opacity="1.000000" stroke="none" 
	d="
M134.430267,256.847290 
	C134.455856,255.348267 135.121124,254.577438 136.181732,254.430908 
	C141.288544,253.725388 146.415482,253.883255 151.532776,254.315552 
	C152.552536,254.401718 153.422424,255.000626 153.656616,256.114563 
	C153.899445,257.269562 153.250946,258.338959 152.283539,258.403229 
	C146.328857,258.799133 140.251312,260.591980 134.430267,256.847290 
z"/>
<path fill="#000000" opacity="1.000000" stroke="none" 
	d="
M351.895935,197.938263 
	C351.913086,194.125854 351.893494,190.797104 351.969177,187.470505 
	C352.000397,186.098114 352.333374,184.650177 353.990051,184.481918 
	C355.765411,184.301590 356.244568,185.750687 356.256744,187.114731 
	C356.310272,193.103806 356.274231,199.094101 356.216492,205.083435 
	C356.204712,206.306152 355.757172,207.520950 354.332001,207.605255 
	C352.558716,207.710175 352.156281,206.237823 352.050842,204.906616 
	C351.880402,202.754776 351.936890,200.584991 351.895935,197.938263 
z"/>
<path fill="#000000" opacity="1.000000" stroke="none" 
	d="
M224.214539,191.945923 
	C224.189529,194.429932 224.229080,196.431320 224.112976,198.423645 
	C224.042236,199.637405 223.542023,200.783173 222.143219,200.926544 
	C220.677475,201.076767 219.934723,199.990173 219.917130,198.770920 
	C219.828323,192.612381 219.838440,186.451691 219.894623,180.292496 
	C219.904266,179.236191 220.605942,178.331467 221.750748,178.305954 
	C223.460358,178.267883 224.048264,179.566772 224.096176,180.967331 
	C224.215698,184.461960 224.184280,187.961777 224.214539,191.945923 
z"/>
<path fill="#000000" opacity="1.000000" stroke="none" 
	d="
M590.860840,279.583252 
	C588.601257,286.395020 582.667297,289.742462 578.034973,294.249329 
	C577.476624,294.792542 576.440125,294.545441 575.811646,293.822754 
	C575.218811,293.141083 574.903137,292.205841 575.472168,291.553864 
	C579.573730,286.854370 583.503113,281.953308 588.932800,278.655884 
	C589.270264,278.450958 590.094421,279.047394 590.860840,279.583252 
z"/>
<path fill="#000000" opacity="1.000000" stroke="none" 
	d="
M619.555420,290.445312 
	C617.204651,288.082611 615.039062,286.030243 613.036682,283.829407 
	C611.907288,282.588043 609.690674,281.258362 611.523682,279.319061 
	C613.335693,277.401947 614.789734,279.327026 616.058838,280.562561 
	C619.022766,283.447998 621.982117,286.341461 624.844177,289.326721 
	C626.023560,290.556854 628.085266,292.002441 626.136597,293.843719 
	C624.287903,295.590485 622.876282,293.643066 621.559753,292.451660 
	C620.947327,291.897400 620.390747,291.281464 619.555420,290.445312 
z"/>
<path fill="#000000" opacity="1.000000" stroke="none" 
	d="
M578.499268,243.406509 
	C582.494751,247.170929 586.194763,250.746658 589.840820,254.376694 
	C590.942383,255.473434 591.879578,256.852203 590.492371,258.275604 
	C588.999634,259.807251 587.729797,258.522369 586.677490,257.497925 
	C583.345276,254.254089 579.970947,251.041031 576.836792,247.611420 
	C575.158569,245.775055 573.789185,243.471237 578.499268,243.406509 
z"/>
<path fill="#000000" opacity="1.000000" stroke="none" 
	d="
M624.492554,248.456818 
	C621.165955,251.753082 618.112854,254.817413 615.004456,257.824524 
	C614.009827,258.786713 612.814270,259.548157 611.535950,258.253296 
	C610.303284,257.004730 610.919067,255.725388 611.871887,254.725143 
	C614.968933,251.473938 618.104187,248.255615 621.323792,245.126526 
	C622.560547,243.924561 624.004944,241.921844 625.919922,243.648483 
	C627.958740,245.486771 625.822693,246.841263 624.492554,248.456818 
z"/>
<path fill="#000000" opacity="1.000000" stroke="none" 
	d="
M602.451721,284.300659 
	C603.867004,290.163116 603.096558,295.790161 603.210327,301.390442 
	C603.238220,302.767792 602.827148,304.195282 601.117737,304.225616 
	C599.099792,304.261414 598.787903,302.642487 598.771484,301.101959 
	C598.720398,296.304260 598.699890,291.504639 598.784180,286.707794 
	C598.820923,284.616119 599.555603,283.051819 602.451721,284.300659 
z"/>
<path fill="#000000" opacity="1.000000" stroke="none" 
	d="
M598.831360,235.573242 
	C600.629639,231.971375 602.656738,232.632187 602.961792,235.575531 
	C603.506226,240.827652 603.180664,246.174683 603.122131,251.480957 
	C603.108704,252.699600 602.475708,253.840012 601.026550,253.755615 
	C599.377502,253.659546 598.831055,252.344208 598.812195,250.946594 
	C598.744995,245.968155 598.776550,240.988388 598.831360,235.573242 
z"/>
<path fill="#000000" opacity="1.000000" stroke="none" 
	d="
M635.716553,270.293701 
	C630.001282,271.755157 624.545288,270.981384 619.120667,271.058228 
	C617.587158,271.079926 615.949402,270.581299 616.073059,268.613800 
	C616.177979,266.944885 617.690430,266.700836 619.055359,266.692657 
	C623.846985,266.663849 628.640503,266.615540 633.429932,266.723999 
	C635.418518,266.769012 637.204895,267.341705 635.716553,270.293701 
z"/>
<path fill="#000000" opacity="1.000000" stroke="none" 
	d="
M585.546997,267.428284 
	C586.757080,270.439056 584.820251,270.954651 582.942261,271.022064 
	C578.301392,271.188660 573.651733,271.154175 569.006165,271.125519 
	C567.469604,271.116058 565.833984,270.837738 565.748901,268.852753 
	C565.654968,266.660126 567.439331,266.645203 568.910278,266.698090 
	C574.359558,266.894104 579.839294,266.043671 585.546997,267.428284 
z"/>
<path fill="#000000" opacity="1.000000" stroke="none" 
	d="
M51.063141,345.954956 
	C52.999683,345.968536 54.484558,345.928223 55.962475,346.011383 
	C57.640038,346.105804 59.560387,346.272278 59.571972,348.469543 
	C59.582108,350.391602 57.797535,350.679169 56.306595,350.728394 
	C53.184654,350.831573 50.054436,350.855865 46.933575,350.744934 
	C45.464111,350.692688 43.684818,350.402771 43.625324,348.488495 
	C43.554295,346.203217 45.498867,346.133453 47.151871,346.009064 
	C48.298897,345.922729 49.455872,345.968719 51.063141,345.954956 
z"/>
<path fill="#000000" opacity="1.000000" stroke="none" 
	d="
M504.827332,195.140213 
	C505.291138,192.289459 503.491516,188.138657 506.965881,188.036621 
	C510.760193,187.925171 508.996887,192.100952 509.208862,194.436798 
	C509.477570,197.397812 509.281921,200.404541 509.221161,203.390244 
	C509.193237,204.762955 508.938660,206.202942 507.190948,206.276321 
	C505.439453,206.349838 505.011414,204.931732 504.946869,203.567459 
	C504.821442,200.917831 504.859375,198.260468 504.827332,195.140213 
z"/>
<path fill="#000000" opacity="1.000000" stroke="none" 
	d="
M432.971008,519.941650 
	C433.214966,521.386230 433.905396,522.928284 433.615662,524.256409 
	C432.870850,527.670837 430.796326,530.032043 426.952789,529.129700 
	C423.504456,528.320190 422.160065,525.665466 422.971252,522.324463 
	C423.802795,518.899597 426.241821,517.524231 429.713470,518.402283 
	C430.644592,518.637817 431.478333,519.258240 432.673645,519.841187 
	C432.990540,519.980347 432.971008,519.941650 432.971008,519.941650 
M426.664398,525.345520 
	C428.210327,526.911499 429.398224,526.283203 429.977814,524.546631 
	C430.428101,523.197632 429.954590,521.605591 428.342651,521.565552 
	C426.353271,521.516235 426.161285,523.155457 426.664398,525.345520 
z"/>
<path fill="#000000" opacity="1.000000" stroke="none" 
	d="
M88.892288,350.915588 
	C86.472733,350.787750 84.485405,350.726654 82.515877,350.506409 
	C81.305130,350.371002 80.177422,349.792572 80.208061,348.372345 
	C80.238091,346.980316 81.378136,346.297882 82.566597,346.244202 
	C86.036919,346.087402 89.517067,346.035950 92.990158,346.104736 
	C94.508133,346.134796 96.206665,346.602509 96.143791,348.531464 
	C96.080338,350.478607 94.280029,350.611664 92.808655,350.793365 
	C91.662247,350.934906 90.491791,350.881744 88.892288,350.915588 
z"/>
<path fill="#000000" opacity="1.000000" stroke="none" 
	d="
M412.249664,527.233276 
	C412.113647,525.525513 411.980988,524.197693 412.062866,522.883301 
	C412.204041,520.617004 411.929413,518.393494 415.585907,518.238464 
	C418.946350,518.095947 421.239655,518.747986 421.881409,522.138367 
	C422.316315,524.435913 423.015259,527.011108 420.733307,529.023132 
	C417.101837,527.619141 420.232635,523.463684 417.337006,521.716125 
	C414.608978,522.353394 415.676575,524.651428 415.449707,526.418457 
	C415.170319,528.594238 414.574768,530.305847 412.249664,527.233276 
z"/>
<path fill="#000000" opacity="1.000000" stroke="none" 
	d="
M361.054657,203.572525 
	C361.111145,200.481094 361.111481,197.821548 361.289978,195.174011 
	C361.381775,193.811783 361.899994,192.364227 363.530457,192.328171 
	C365.186523,192.291565 365.739197,193.733994 365.814148,195.097290 
	C365.968994,197.913605 365.996979,200.741516 365.949463,203.562531 
	C365.922058,205.188568 366.055450,207.316681 363.998291,207.659882 
	C361.393188,208.094482 361.357361,205.801743 361.054657,203.572525 
z"/>
<path fill="#000000" opacity="1.000000" stroke="none" 
	d="
M669.202271,419.209839 
	C672.622864,420.878479 672.426819,422.697662 669.382141,423.541229 
	C666.025024,424.471405 662.444275,424.147278 658.967651,423.653137 
	C657.736694,423.478180 656.642212,422.847015 656.588745,421.487823 
	C656.518799,419.710449 658.006714,419.298340 659.325745,419.237457 
	C662.478821,419.091919 665.641418,419.152405 669.202271,419.209839 
z"/>
<path fill="#000000" opacity="1.000000" stroke="none" 
	d="
M387.885284,79.052963 
	C389.769318,80.950745 391.421509,82.574173 393.017456,84.251099 
	C394.173096,85.465393 395.548553,86.858711 393.840515,88.462776 
	C392.160767,90.040314 390.769501,88.553406 389.583160,87.455673 
	C387.764191,85.772598 386.012878,84.008125 384.332031,82.186714 
	C383.045837,80.792992 380.665558,79.213509 382.370941,77.250031 
	C384.506897,74.790764 386.044464,77.586403 387.885284,79.052963 
z"/>
<path fill="#000000" opacity="1.000000" stroke="none" 
	d="
M410.599335,102.418655 
	C413.563049,105.073448 416.242004,107.551712 418.836853,110.115097 
	C419.916962,111.182129 420.987640,112.552284 419.656250,114.009911 
	C418.321625,115.471092 416.892456,114.607864 415.755554,113.506821 
	C413.370056,111.196434 410.914856,108.936279 408.741943,106.435081 
	C407.016876,104.449333 406.501923,102.449539 410.599335,102.418655 
z"/>
<path fill="#000000" opacity="1.000000" stroke="none" 
	d="
M56.033394,359.022186 
	C58.285385,357.385010 59.958782,353.247742 62.546421,355.721497 
	C65.380821,358.431122 61.056778,360.011871 59.643730,361.893158 
	C58.359665,363.602692 56.661758,365.012543 55.079971,366.483215 
	C54.088181,367.405334 52.875698,368.327393 51.583122,367.144684 
	C50.116375,365.802551 50.933445,364.388397 51.964069,363.216492 
	C53.169418,361.845947 54.502178,360.587402 56.033394,359.022186 
z"/>
<path fill="#000000" opacity="1.000000" stroke="none" 
	d="
M415.910828,83.966515 
	C414.499573,85.384384 413.383331,86.602463 412.161346,87.703186 
	C411.055908,88.698906 409.774200,89.847946 408.295868,88.465057 
	C406.837738,87.101128 407.694885,85.752296 408.798706,84.617729 
	C411.096039,82.256294 413.405151,79.904724 415.766724,77.607994 
	C416.909760,76.496384 418.382660,75.804802 419.700562,77.106049 
	C421.136322,78.523643 420.000702,79.825829 418.971283,80.936974 
	C418.076660,81.902618 417.100067,82.792336 415.910828,83.966515 
z"/>
<path fill="#000000" opacity="1.000000" stroke="none" 
	d="
M383.251648,114.454590 
	C382.011139,113.623734 381.665131,112.623329 382.275574,111.726326 
	C384.697632,108.167267 387.867310,105.297348 391.183746,102.601860 
	C391.999573,101.938751 393.041565,101.943573 393.869598,102.767334 
	C394.685059,103.578651 394.835785,104.731407 394.093842,105.434776 
	C390.718903,108.634308 388.493286,113.176025 383.251648,114.454590 
z"/>
<path fill="#000000" opacity="1.000000" stroke="none" 
	d="
M81.314316,356.563049 
	C83.438530,358.685577 85.357788,360.508667 87.154190,362.445679 
	C88.343842,363.728455 90.182274,365.190857 88.225601,367.011475 
	C86.563705,368.557831 85.205635,366.988953 84.030655,365.840302 
	C82.022469,363.877167 80.057625,361.869476 78.083702,359.871490 
	C77.021301,358.796143 75.749138,357.574066 76.849541,356.032196 
	C78.196014,354.145599 79.715919,355.155151 81.314316,356.563049 
z"/>
<path fill="#000000" opacity="1.000000" stroke="none" 
	d="
M76.564011,339.319580 
	C79.253670,336.213013 81.835701,333.404816 84.508011,330.685333 
	C85.602295,329.571686 87.018028,328.693878 88.415337,330.127411 
	C89.637154,331.380920 88.743721,332.656952 87.822189,333.632935 
	C85.539047,336.050964 83.253502,338.481110 80.793144,340.712585 
	C79.067024,342.278107 77.222343,342.847931 76.564011,339.319580 
z"/>
<path fill="#000000" opacity="1.000000" stroke="none" 
	d="
M52.107391,329.500793 
	C57.343483,330.884674 59.677643,335.340118 63.009899,338.640717 
	C63.631401,339.256287 63.468845,340.222778 62.978394,340.951385 
	C62.487934,341.680054 61.762768,341.987976 60.839062,341.841766 
	C58.779171,341.515778 51.002926,332.944489 50.938362,330.775208 
	C50.927231,330.401154 51.479725,330.010284 52.107391,329.500793 
z"/>
<path fill="#000000" opacity="1.000000" stroke="none" 
	d="
M413.775299,97.945480 
	C412.019531,97.386108 410.915222,96.598572 411.318146,94.998604 
	C411.669067,93.605186 412.972107,93.593361 414.155914,93.591637 
	C417.621429,93.586586 421.086945,93.578865 424.552460,93.578247 
	C425.995392,93.577995 427.317108,93.905701 427.282013,95.668411 
	C427.249512,97.298920 425.982666,97.945831 424.575928,97.981400 
	C421.113892,98.068954 417.648193,98.011429 413.775299,97.945480 
z"/>
<path fill="#000000" opacity="1.000000" stroke="none" 
	d="
M67.670364,369.753235 
	C67.668579,366.813171 67.629341,364.329620 67.679459,361.847839 
	C67.710510,360.310303 67.906624,358.643433 69.955635,358.698883 
	C71.988792,358.753937 72.090187,360.465607 72.133270,361.974243 
	C72.213585,364.786499 72.260925,367.601929 72.219879,370.414551 
	C72.193512,372.220764 72.276314,374.567871 69.760452,374.476501 
	C67.137413,374.381256 67.842514,371.915863 67.670364,369.753235 
z"/>
<path fill="#000000" opacity="1.000000" stroke="none" 
	d="
M381.289948,93.606216 
	C384.032776,93.589882 386.357483,93.540161 388.681091,93.572403 
	C389.736511,93.587051 390.673828,93.988358 390.877716,95.173790 
	C391.120148,96.583359 390.274719,97.512093 389.059998,97.716728 
	C384.950470,98.409012 380.805206,98.398933 376.697021,97.681778 
	C375.699554,97.507660 374.932404,96.725121 374.970734,95.552040 
	C375.009949,94.353302 375.814056,93.758583 376.889801,93.667091 
	C378.209198,93.554855 379.543518,93.618614 381.289948,93.606216 
z"/>
<path fill="#000000" opacity="1.000000" stroke="none" 
	d="
M398.711609,81.550758 
	C398.708069,78.291840 398.672943,75.476898 398.731079,72.663879 
	C398.763947,71.074554 399.201477,69.532143 401.161865,69.587227 
	C403.191101,69.644249 403.319366,71.326202 403.340057,72.849899 
	C403.380463,75.829239 403.363861,78.809761 403.334961,81.789444 
	C403.320190,83.310425 403.245209,85.095146 401.384216,85.317978 
	C399.123535,85.588684 398.810181,83.756844 398.711609,81.550758 
z"/>
<path fill="#000000" opacity="1.000000" stroke="none" 
	d="
M67.675323,330.962158 
	C68.512405,327.791595 65.595207,322.770050 70.020668,322.731506 
	C73.693161,322.699554 71.565025,327.632233 72.162125,330.322540 
	C72.232407,330.639191 72.231834,331.001862 72.154427,331.316193 
	C71.588303,333.615143 73.680786,337.759644 69.734795,337.686035 
	C66.447350,337.624695 68.147743,333.673859 67.675323,330.962158 
z"/>
<path fill="#000000" opacity="1.000000" stroke="none" 
	d="
M403.035095,120.287201 
	C400.411255,122.870010 399.112396,121.352684 398.894928,119.024864 
	C398.572296,115.571724 398.745667,112.065598 398.825226,108.584709 
	C398.858185,107.144058 399.543213,105.900940 401.225464,106.036362 
	C402.893677,106.170654 403.293335,107.546265 403.297302,108.940735 
	C403.307709,112.588318 403.231262,116.236160 403.035095,120.287201 
z"/>
<path fill="#000000" opacity="1.000000" stroke="none" 
	d="
M8.147579,234.367935 
	C12.016216,233.132111 15.651430,233.771011 19.256020,233.676758 
	C20.611908,233.641312 22.050512,233.920441 22.149143,235.653473 
	C22.245260,237.342316 20.927794,237.952316 19.545494,237.999847 
	C16.420181,238.107330 13.280301,238.176392 10.163009,237.986923 
	C8.304807,237.873993 7.041169,236.857819 8.147579,234.367935 
z"/>
<path fill="#000000" opacity="1.000000" stroke="none" 
	d="
M566.255127,398.599274 
	C569.212646,397.870819 571.826416,397.831055 574.423035,398.417236 
	C575.431213,398.644867 576.185669,399.303558 576.375122,400.398102 
	C576.535583,401.325012 576.106079,402.106781 575.293945,402.387299 
	C572.113220,403.485809 568.806702,403.789703 565.757202,402.255005 
	C564.062012,401.401825 564.325745,399.862640 566.255127,398.599274 
z"/>
<path fill="#000000" opacity="1.000000" stroke="none" 
	d="
M433.001343,519.998840 
	C433.737610,518.510864 434.512512,517.049683 436.520050,516.352295 
	C437.554474,517.150146 438.693329,518.028625 440.163849,519.162903 
	C437.680878,522.101135 437.407776,525.165894 440.009125,528.357971 
	C436.513855,529.844238 435.342743,528.254639 434.893066,525.641113 
	C434.587280,523.863953 434.860840,521.951111 433.230316,520.205322 
	C432.971008,519.941650 432.990540,519.980347 433.001343,519.998840 
z"/>
<path fill="#000000" opacity="1.000000" stroke="none" 
	d="
M495.806458,199.184387 
	C495.981812,197.044006 495.403351,194.623154 497.971771,194.544434 
	C500.597168,194.463974 500.100067,196.894241 500.277252,198.605789 
	C500.310944,198.931015 500.355713,199.275238 500.288208,199.587570 
	C499.788879,201.898376 501.751099,205.998703 498.085663,206.018204 
	C494.434052,206.037643 496.334229,201.921341 495.806458,199.184387 
z"/>
<path fill="#000000" opacity="1.000000" stroke="none" 
	d="
M349.643372,17.505753 
	C350.514282,13.995623 355.563843,12.348836 357.796417,14.524729 
	C359.516479,16.201094 358.627167,17.622837 356.834900,18.307652 
	C354.516327,19.193560 352.059052,19.676434 349.643372,17.505753 
z"/>
<path fill="#000000" opacity="1.000000" stroke="none" 
	d="
M237.980194,521.028198 
	C236.040894,521.677429 235.609924,523.115479 235.742157,524.941101 
	C235.862030,526.596313 235.747513,528.200806 233.603836,529.147522 
	C230.701767,525.808777 232.260742,522.399536 232.876785,518.562927 
	C234.759537,519.254456 237.150406,516.841553 238.064789,520.633728 
	C238.045776,520.957764 238.001328,521.004089 237.980194,521.028198 
z"/>
<path fill="#000000" opacity="1.000000" stroke="none" 
	d="
M369.162598,13.745771 
	C369.744659,13.719516 369.911072,13.705377 370.075470,13.717701 
	C371.983948,13.860747 374.263580,13.234235 375.178253,15.697280 
	C375.653717,16.977604 374.905945,17.967739 373.659943,18.397446 
	C371.374237,19.185730 368.850006,19.462757 367.070618,17.753061 
	C364.841888,15.611612 366.276703,14.309470 369.162598,13.745771 
z"/>
<path fill="#000000" opacity="1.000000" stroke="none" 
	d="
M387.857178,14.846247 
	C390.034332,15.294909 392.405121,15.536412 391.747833,18.021181 
	C391.104889,20.451948 388.618164,20.083097 386.676636,19.836763 
	C384.902893,19.611715 382.563202,19.312487 382.756104,16.940641 
	C382.989868,14.066328 385.536163,14.808077 387.857178,14.846247 
z"/>
<path fill="#000000" opacity="1.000000" stroke="none" 
	d="
M464.645203,521.868896 
	C465.172760,519.372131 463.880524,516.936584 465.660889,514.900940 
	C468.697815,518.523376 468.947174,524.782532 466.182068,529.016296 
	C463.607178,527.158997 464.828217,524.524048 464.645203,521.868896 
z"/>
<path fill="#000000" opacity="1.000000" stroke="none" 
	d="
M338.832947,14.913422 
	C340.818237,15.255081 342.478271,15.976369 341.729523,17.806646 
	C340.621948,20.514269 337.887238,19.897078 335.629639,19.884640 
	C334.232025,19.876938 332.601440,19.265717 332.840057,17.701946 
	C333.334198,14.463850 336.319855,15.389534 338.832947,14.913422 
z"/>
<path fill="#000000" opacity="1.000000" stroke="none" 
	d="
M554.601685,514.799316 
	C556.512817,509.858643 559.761475,512.740479 562.527222,513.213562 
	C563.331177,513.351013 563.501953,514.518616 563.305115,515.362854 
	C563.101624,516.235718 562.424866,516.872986 561.552673,516.909485 
	C559.110962,517.011719 556.509338,517.571777 554.601685,514.799316 
z"/>
<path fill="#000000" opacity="1.000000" stroke="none" 
	d="
M271.929504,30.734722 
	C274.010620,30.070431 276.116882,29.119524 276.740540,31.670788 
	C277.281860,33.885361 275.164185,34.647064 273.464600,35.261627 
	C271.625366,35.926685 269.325531,36.913593 268.397247,34.376095 
	C267.524567,31.990572 270.089661,31.687935 271.929504,30.734722 
z"/>
<path fill="#000000" opacity="1.000000" stroke="none" 
	d="
M541.874329,84.709930 
	C538.794312,85.709541 534.459412,83.337265 534.414978,80.897644 
	C534.373291,78.610115 535.980164,77.894287 537.692322,78.916969 
	C539.713806,80.124413 542.056213,81.396332 541.874329,84.709930 
z"/>
<path fill="#000000" opacity="1.000000" stroke="none" 
	d="
M571.676575,513.619629 
	C573.580261,512.315247 575.465088,512.566162 577.245667,512.387634 
	C578.601990,512.251648 580.026367,512.610413 580.184204,514.323364 
	C580.339050,516.003601 578.978455,516.857239 577.693542,516.832275 
	C575.274048,516.785278 571.337524,519.467468 571.676575,513.619629 
z"/>
<path fill="#000000" opacity="1.000000" stroke="none" 
	d="
M260.229980,36.560017 
	C262.377716,38.866318 260.947968,40.079113 259.166290,40.949650 
	C257.443665,41.791332 255.666336,43.501884 253.640564,42.131439 
	C252.013504,41.030727 252.431747,39.369743 253.949921,38.457935 
	C255.759995,37.370831 257.592010,36.052616 260.229980,36.560017 
z"/>
<path fill="#000000" opacity="1.000000" stroke="none" 
	d="
M465.008240,39.359772 
	C463.454651,37.955547 462.815308,36.462330 464.660004,35.532654 
	C467.065125,34.320538 469.100861,35.951859 471.024902,37.202793 
	C472.122589,37.916473 472.532104,39.102833 471.671997,40.202721 
	C470.521637,41.673809 469.022003,41.133518 467.604980,40.531544 
	C466.844208,40.208344 466.086639,39.877434 465.008240,39.359772 
z"/>
<path fill="#000000" opacity="1.000000" stroke="none" 
	d="
M592.287231,513.553040 
	C590.107788,514.240173 587.966736,514.667725 587.843140,512.041016 
	C587.712219,509.259247 590.643066,509.324280 592.430237,508.467072 
	C593.876953,507.773132 595.593567,507.769867 596.065796,509.589630 
	C596.755737,512.248291 594.426636,512.709106 592.287231,513.553040 
z"/>
<path fill="#000000" opacity="1.000000" stroke="none" 
	d="
M231.798141,54.018158 
	C231.073120,55.056862 230.511108,55.982903 229.689667,56.410473 
	C227.927826,57.327534 226.193527,59.714005 224.023178,57.596817 
	C222.686478,56.292854 223.529800,54.642284 225.042358,53.934063 
	C227.202835,52.922462 229.431503,49.169346 231.798141,54.018158 
z"/>
<path fill="#000000" opacity="1.000000" stroke="none" 
	d="
M453.127747,34.944305 
	C451.830902,34.495804 450.883789,34.206867 450.005066,33.777897 
	C448.601807,33.092880 447.321991,32.149799 448.224060,30.371906 
	C449.075256,28.694189 450.633850,28.908705 452.074402,29.529068 
	C453.814331,30.278385 456.242645,30.436281 456.521423,32.818539 
	C456.745728,34.735008 455.168884,35.170753 453.127747,34.944305 
z"/>
<path fill="#000000" opacity="1.000000" stroke="none" 
	d="
M521.742798,69.283859 
	C525.801392,66.530060 527.279236,70.029953 529.243042,72.118683 
	C529.752563,72.660645 529.532227,73.689316 528.899048,74.360336 
	C528.119812,75.186096 527.119141,75.331200 526.238708,74.762093 
	C524.245667,73.473892 521.735718,72.584831 521.742798,69.283859 
z"/>
<path fill="#000000" opacity="1.000000" stroke="none" 
	d="
M542.563354,514.177856 
	C540.567871,513.504578 538.332703,513.550415 538.268860,511.081940 
	C538.232910,509.692108 539.431519,509.039825 540.649292,509.043427 
	C542.992798,509.050323 545.898743,509.203583 546.650452,511.589417 
	C547.586121,514.558533 544.984619,514.445374 542.563354,514.177856 
z"/>
<path fill="#000000" opacity="1.000000" stroke="none" 
	d="
M307.402283,24.654121 
	C306.453217,25.040829 305.837830,25.264946 305.203308,25.397387 
	C303.492462,25.754486 301.596344,26.676262 300.388489,24.579672 
	C299.520142,23.072363 300.451355,22.038612 301.821411,21.571314 
	C303.893707,20.864487 306.049103,19.235958 308.200989,21.147598 
	C309.431427,22.240648 308.941315,23.495258 307.402283,24.654121 
z"/>
<path fill="#000000" opacity="1.000000" stroke="none" 
	d="
M549.598633,90.406746 
	C550.646729,91.249619 551.431213,91.880020 552.107483,92.610657 
	C553.232422,93.826012 554.599670,95.050911 553.434265,96.934105 
	C552.984863,97.660339 552.147949,98.178703 551.291931,97.748070 
	C549.143311,96.667152 547.453979,94.927933 546.718201,92.715759 
	C546.110474,90.888565 547.356934,89.967514 549.598633,90.406746 
z"/>
<path fill="#000000" opacity="1.000000" stroke="none" 
	d="
M563.017578,105.151222 
	C564.210693,106.887535 565.961975,108.572556 563.868774,110.058273 
	C561.566345,111.692482 560.423889,109.218826 559.202698,107.839211 
	C558.008728,106.490364 556.547241,104.706390 558.403259,103.170616 
	C560.307251,101.595192 561.606445,103.552589 563.017578,105.151222 
z"/>
<path fill="#000000" opacity="1.000000" stroke="none" 
	d="
M319.044861,17.744066 
	C319.560577,17.635906 319.721283,17.603184 319.883606,17.589437 
	C321.757019,17.430805 323.851105,16.423075 325.138611,18.729156 
	C325.567169,19.496693 325.338623,20.434658 324.574249,20.892164 
	C322.412079,22.186262 319.788696,23.258152 317.640869,21.943848 
	C315.022980,20.341887 316.524902,18.766108 319.044861,17.744066 
z"/>
<path fill="#000000" opacity="1.000000" stroke="none" 
	d="
M582.421875,134.622650 
	C583.255676,136.569855 583.149170,138.071579 581.127380,138.256210 
	C578.298584,138.514542 577.983215,135.822952 577.005859,134.075150 
	C576.355530,132.912323 576.088623,131.444977 577.529663,130.588272 
	C579.296082,129.538116 580.219727,130.923599 581.068054,132.154648 
	C581.530334,132.825485 581.873657,133.578278 582.421875,134.622650 
z"/>
<path fill="#000000" opacity="1.000000" stroke="none" 
	d="
M439.498535,29.490738 
	C438.037140,29.489943 436.834717,29.551594 435.822235,29.142775 
	C434.159546,28.471378 431.275818,28.273264 432.320160,25.543858 
	C433.282440,23.028965 435.717346,24.302176 437.463593,24.904522 
	C439.451965,25.590382 442.486481,26.040207 439.498535,29.490738 
z"/>
<path fill="#000000" opacity="1.000000" stroke="none" 
	d="
M423.516602,21.301115 
	C424.978912,22.663326 425.280609,24.064545 423.749847,24.795715 
	C421.285004,25.973068 418.894806,24.943363 416.762878,23.593229 
	C415.860535,23.021772 415.628326,21.936829 416.319702,20.981510 
	C417.384094,19.510683 418.928925,19.798700 420.386932,20.120920 
	C421.346100,20.332888 422.261017,20.744946 423.516602,21.301115 
z"/>
<path fill="#000000" opacity="1.000000" stroke="none" 
	d="
M523.407104,507.643921 
	C522.152710,506.212189 521.805420,504.758606 523.414124,504.145325 
	C525.985168,503.165161 528.195740,504.656647 530.220032,506.063507 
	C531.116333,506.686401 531.185242,507.823669 530.483337,508.705872 
	C529.300537,510.192474 527.792908,509.526642 526.402466,509.071594 
	C525.469604,508.766357 524.595032,508.283020 523.407104,507.643921 
z"/>
<path fill="#000000" opacity="1.000000" stroke="none" 
	d="
M402.188477,16.731220 
	C402.910706,16.772102 403.252930,16.763254 403.553040,16.871403 
	C405.309509,17.504423 407.665100,17.130203 408.424133,19.483776 
	C408.767578,20.548605 408.120758,21.554779 407.114288,21.778742 
	C404.656616,22.325638 401.977356,21.984838 400.207153,20.441605 
	C398.268402,18.751446 399.600983,17.292009 402.188477,16.731220 
z"/>
<path fill="#000000" opacity="1.000000" stroke="none" 
	d="
M44.017044,304.337585 
	C45.217983,302.499908 46.320301,300.603729 48.429256,302.029144 
	C50.298050,303.292206 49.051605,305.020538 48.145939,306.342896 
	C47.189335,307.739685 46.475483,310.125946 44.199379,309.189880 
	C41.720306,308.170410 43.032249,306.251465 44.017044,304.337585 
z"/>
<path fill="#000000" opacity="1.000000" stroke="none" 
	d="
M484.499146,43.193119 
	C486.340820,44.341022 488.500793,45.296032 486.748718,47.446640 
	C485.256714,49.277988 483.398743,47.765800 481.835266,46.991280 
	C480.390259,46.275444 478.344238,45.451488 479.152405,43.481339 
	C480.284851,40.720608 482.397308,42.333519 484.499146,43.193119 
z"/>
<path fill="#000000" opacity="1.000000" stroke="none" 
	d="
M33.368095,352.913452 
	C33.076115,351.769714 32.876926,350.969177 32.856018,350.164001 
	C32.813595,348.530457 32.704674,346.749329 34.650112,346.057037 
	C35.681179,345.690094 36.642616,346.256378 36.982986,347.292877 
	C37.642021,349.299683 38.439003,351.444977 37.092575,353.395782 
	C36.038776,354.922638 34.666462,354.848358 33.368095,352.913452 
z"/>
<path fill="#000000" opacity="1.000000" stroke="none" 
	d="
M284.102661,27.944805 
	C284.799713,27.066059 285.338043,26.266176 286.037018,26.084581 
	C288.087250,25.551931 290.246429,23.516096 292.276062,25.925640 
	C293.208801,27.032976 292.499969,28.357267 291.382965,28.734684 
	C288.937958,29.560812 286.207367,32.556786 284.102661,27.944805 
z"/>
<path fill="#000000" opacity="1.000000" stroke="none" 
	d="
M607.333130,498.981140 
	C609.887512,499.179016 610.793579,500.518677 609.474976,502.241730 
	C608.060730,504.089691 606.523987,506.550201 603.630066,505.851807 
	C602.051147,505.470764 602.002869,503.737854 602.953308,502.622803 
	C604.100159,501.277405 605.609009,500.240570 607.333130,498.981140 
z"/>
<path fill="#000000" opacity="1.000000" stroke="none" 
	d="
M243.487335,48.612129 
	C241.561905,49.487415 239.922089,50.996849 238.315643,49.023540 
	C237.452621,47.963448 237.860260,46.728710 238.970886,46.048798 
	C240.864288,44.889675 242.865341,42.454380 245.080856,43.975124 
	C247.589828,45.697277 245.504288,47.255692 243.487335,48.612129 
z"/>
<path fill="#000000" opacity="1.000000" stroke="none" 
	d="
M512.683105,59.397938 
	C514.340942,60.859505 516.758789,61.568100 515.656250,64.161537 
	C515.226807,65.171753 514.070496,65.422699 513.103210,65.000664 
	C510.996094,64.081337 508.254272,63.017975 508.147400,60.702698 
	C508.006470,57.649754 510.448792,58.368958 512.683105,59.397938 
z"/>
<path fill="#000000" opacity="1.000000" stroke="none" 
	d="
M210.478256,67.344620 
	C209.227371,63.110645 212.710571,62.613274 214.887924,61.173584 
	C215.606262,60.698616 216.510559,61.020107 217.059570,61.797436 
	C217.716263,62.727295 217.712173,63.811821 216.949158,64.532265 
	C215.217575,66.167229 213.785477,68.570374 210.478256,67.344620 
z"/>
<path fill="#000000" opacity="1.000000" stroke="none" 
	d="
M585.589111,152.175461 
	C585.168335,151.247574 584.883972,150.657867 584.677246,150.042099 
	C584.181763,148.566193 582.897339,146.767899 585.026428,145.795135 
	C587.362488,144.727814 588.127075,146.817352 588.799622,148.471924 
	C589.517944,150.239212 590.688293,152.221786 588.214172,153.564178 
	C587.219604,154.103806 586.381104,153.328629 585.589111,152.175461 
z"/>
<path fill="#000000" opacity="1.000000" stroke="none" 
	d="
M44.081081,384.072571 
	C43.057644,383.576263 42.176888,383.207001 41.833904,382.554871 
	C40.890129,380.760498 38.901497,379.020203 40.616779,376.759796 
	C41.502861,375.592102 42.895580,375.967407 43.580769,377.009430 
	C44.992455,379.156281 47.867905,381.269714 44.081081,384.072571 
z"/>
<path fill="#000000" opacity="1.000000" stroke="none" 
	d="
M574.246887,121.413879 
	C574.292847,123.337776 573.525391,124.580994 571.951477,123.983589 
	C569.489258,123.049004 568.395508,120.749275 567.825134,118.297295 
	C567.633850,117.474899 568.077759,116.636047 568.926453,116.307007 
	C571.043091,115.486404 571.819946,117.249870 572.773560,118.491211 
	C573.362488,119.257858 573.721924,120.200874 574.246887,121.413879 
z"/>
<path fill="#000000" opacity="1.000000" stroke="none" 
	d="
M33.767117,336.675598 
	C33.737381,335.447357 33.698662,334.612823 33.787666,333.792175 
	C33.956955,332.231354 34.422596,330.746033 36.255569,330.552673 
	C37.353252,330.436859 38.190765,331.218201 38.296032,332.321259 
	C38.501904,334.478668 38.630753,336.793518 36.784340,338.316193 
	C35.446125,339.419800 34.328583,338.649780 33.767117,336.675598 
z"/>
<path fill="#000000" opacity="1.000000" stroke="none" 
	d="
M52.818840,390.131470 
	C53.862194,391.231873 54.695755,392.043915 55.372154,392.970642 
	C56.033779,393.877136 55.990864,394.926910 55.048824,395.599762 
	C53.476055,396.723053 52.157814,395.717712 51.109470,394.687592 
	C49.886993,393.486359 47.793835,392.421570 48.805489,390.254395 
	C49.628540,388.491241 51.171898,388.831329 52.818840,390.131470 
z"/>
<path fill="#000000" opacity="1.000000" stroke="none" 
	d="
M36.661247,369.077942 
	C36.018513,368.094666 35.522209,367.384949 35.354595,366.604675 
	C34.965149,364.791687 33.623344,362.367523 36.600822,361.750000 
	C39.124615,361.226593 39.264595,363.768005 39.647655,365.421265 
	C40.134090,367.520721 40.797760,370.067352 36.661247,369.077942 
z"/>
<path fill="#000000" opacity="1.000000" stroke="none" 
	d="
M40.967995,321.907532 
	C39.785824,323.731873 38.335236,324.350464 37.307205,322.631989 
	C36.076065,320.573914 37.395473,318.507782 38.372688,316.644531 
	C38.956753,315.530853 40.061756,314.985748 41.274193,315.781219 
	C42.904556,316.850952 42.310730,318.323120 41.796040,319.735535 
	C41.571449,320.351837 41.350311,320.969452 40.967995,321.907532 
z"/>
<path fill="#000000" opacity="1.000000" stroke="none" 
	d="
M54.058464,292.025055 
	C55.784676,290.881592 57.099094,289.010040 59.028214,290.832428 
	C59.844589,291.603638 59.730034,292.752869 59.011639,293.531128 
	C57.589970,295.071259 56.174141,297.509583 53.892727,296.782532 
	C50.810513,295.800232 52.402805,293.834991 54.058464,292.025055 
z"/>
<path fill="#000000" opacity="1.000000" stroke="none" 
	d="
M500.666565,55.962715 
	C499.528107,55.963219 498.645203,55.980911 497.971100,55.614471 
	C496.168396,54.634563 493.654236,53.996418 494.090759,51.252552 
	C494.354004,49.597820 496.028168,49.423912 497.238159,50.176151 
	C499.275574,51.442822 503.258606,51.607475 500.666565,55.962715 
z"/>
<path fill="#000000" opacity="1.000000" stroke="none" 
	d="
M73.319687,285.807007 
	C72.878632,286.641144 72.537674,287.371674 72.018364,287.535004 
	C69.951782,288.184845 67.812355,289.945770 65.713303,287.744415 
	C64.928352,286.921234 65.159615,285.563751 66.117378,285.225952 
	C68.484673,284.390869 71.061249,281.856262 73.319687,285.807007 
z"/>
<path fill="#000000" opacity="1.000000" stroke="none" 
	d="
M190.950958,312.834534 
	C191.124557,311.171967 191.107422,309.556335 193.014114,309.780884 
	C194.650681,309.973663 194.884644,311.438416 194.903809,312.810272 
	C194.923676,314.232513 194.508713,315.565155 192.928970,315.810028 
	C190.890503,316.126007 191.070328,314.480042 190.950958,312.834534 
z"/>
<path fill="#000000" opacity="1.000000" stroke="none" 
	d="
M399.082031,471.906342 
	C392.578979,479.578064 381.223175,481.682495 371.985199,477.214478 
	C364.342957,473.518250 360.140625,462.975555 362.164246,452.575958 
	C364.472443,440.713745 372.395691,434.942108 384.877197,436.030914 
	C396.143860,437.013672 402.338623,444.182159 402.434052,456.208282 
	C402.476624,461.576935 402.428162,466.888763 399.082031,471.906342 
M376.013916,450.800171 
	C374.519623,454.669250 374.783875,458.680634 375.422241,462.609192 
	C375.977478,466.026276 378.124115,468.302643 381.756653,468.671234 
	C385.485626,469.049622 387.646393,466.984680 388.948517,463.741425 
	C390.173126,460.691193 389.858643,457.496826 389.590179,454.375183 
	C389.320740,451.242218 387.902588,448.456726 384.740540,447.431183 
	C381.512451,446.384277 378.462280,446.972595 376.013916,450.800171 
z"/>
<path fill="#000000" opacity="1.000000" stroke="none" 
	d="
M317.039612,451.469482 
	C316.420227,453.265900 316.271088,455.146362 315.262360,455.956360 
	C310.032227,460.155914 312.650848,463.838501 315.558746,467.762573 
	C317.786621,470.768951 319.749237,473.971863 321.950012,477.267365 
	C312.094849,480.191681 308.824280,478.936615 304.490753,471.415985 
	C303.130371,469.055023 302.223389,466.256500 299.353363,464.593475 
	C297.483582,467.754883 298.282867,470.956573 298.376373,473.946838 
	C298.506012,478.093475 296.186310,478.618713 292.989136,478.383453 
	C289.893799,478.155701 285.850616,479.570618 285.853241,474.098877 
	C285.858582,462.949158 285.863983,451.798920 285.754059,440.650024 
	C285.721344,437.328003 287.520081,436.237152 290.394989,436.162720 
	C295.719604,436.024750 301.045593,435.910889 306.308075,437.012054 
	C314.451416,438.715942 317.367889,442.496765 317.039612,451.469482 
M303.994690,448.347534 
	C301.853882,446.631531 299.794250,446.257904 298.563965,449.224365 
	C298.024811,450.524323 297.994019,452.187775 299.205963,453.343689 
	C299.972687,454.075012 301.055908,454.014374 301.986328,453.641602 
	C304.098541,452.795380 304.989014,451.251282 303.994690,448.347534 
z"/>
<path fill="#000000" opacity="1.000000" stroke="none" 
	d="
M437.109375,465.945160 
	C439.359772,469.975159 442.628265,473.017822 444.044128,478.039764 
	C439.206482,478.030273 434.448090,480.222870 430.611206,476.751251 
	C427.295349,473.751068 426.504700,468.581818 422.664734,465.393646 
	C420.319550,468.337555 421.175903,471.282227 421.201019,473.973053 
	C421.247772,478.986542 417.854156,478.390472 414.681061,478.404785 
	C411.602417,478.418640 408.594788,478.734161 408.655701,474.049988 
	C408.800720,462.896484 408.740967,451.739227 408.642822,440.584503 
	C408.616882,437.634155 409.874725,436.266754 412.723114,436.171143 
	C418.383789,435.981140 424.037659,435.798004 429.617493,437.141052 
	C439.570648,439.536804 443.391205,449.635498 436.805176,457.544739 
	C434.031006,460.876221 434.644714,462.975006 437.109375,465.945160 
M427.343903,449.766541 
	C426.927460,447.716187 425.648224,446.566925 423.583923,446.701355 
	C422.065033,446.800293 421.379150,448.008667 421.343079,449.450348 
	C421.303864,451.018677 420.744904,453.042786 422.799500,453.642120 
	C425.363800,454.390106 426.736481,452.828217 427.343903,449.766541 
z"/>
<path fill="#000000" opacity="1.000000" stroke="none" 
	d="
M350.659607,439.093628 
	C357.150879,444.973389 357.993927,451.468201 352.694244,457.728668 
	C350.329620,460.522003 350.535797,462.442413 352.421844,465.075928 
	C355.206116,468.963562 357.778107,473.003174 361.139282,478.021393 
	C355.453033,478.026367 350.502411,480.298218 346.613770,476.692261 
	C343.172302,473.501007 342.205475,468.215271 338.265930,464.624603 
	C336.301910,467.772888 337.102875,470.952332 337.115082,473.922974 
	C337.135315,478.847412 333.860870,478.402832 330.619232,478.411652 
	C327.469482,478.420197 324.586395,478.588287 324.645172,473.983093 
	C324.787628,462.826813 324.718903,451.666931 324.638458,440.509216 
	C324.619507,437.878479 325.579956,436.309845 328.272339,436.209442 
	C335.763092,435.930145 343.278442,435.544586 350.659607,439.093628 
M341.434052,447.172272 
	C337.111298,445.863922 337.164856,448.805542 337.158203,451.618347 
	C337.154175,453.314148 337.701263,454.807587 339.765930,454.205383 
	C342.480469,453.413696 344.084290,451.700012 342.985382,448.614807 
	C342.831085,448.181671 342.358063,447.862030 341.434052,447.172272 
z"/>
<path fill="#000000" opacity="1.000000" stroke="none" 
	d="
M254.711609,458.999512 
	C254.707596,452.835663 254.859299,447.165771 254.642975,441.509918 
	C254.507446,437.966125 255.738434,436.148560 259.377899,436.159180 
	C264.874207,436.175262 270.371033,436.191864 275.866913,436.135925 
	C279.791687,436.095978 280.341187,438.404114 280.350037,441.689423 
	C280.359131,445.071655 279.234314,446.678925 275.713898,446.395966 
	C273.895294,446.249817 272.048553,446.343933 270.221283,446.447784 
	C268.525146,446.544189 267.336914,447.331055 267.436401,449.243713 
	C267.520538,450.860718 268.579193,451.572540 270.062927,451.711578 
	C271.221405,451.820129 272.398621,451.937164 273.552338,451.849792 
	C277.338531,451.562927 279.388428,452.596497 279.389923,457.052185 
	C279.391418,461.583893 277.172516,462.442047 273.474457,462.180511 
	C272.481201,462.110260 271.476837,462.190857 270.477753,462.210419 
	C268.553314,462.248108 267.265778,462.947906 267.315826,465.145996 
	C267.367188,467.401672 268.859222,467.856812 270.681396,467.915680 
	C271.846527,467.953339 273.013062,467.944183 274.178741,467.967621 
	C280.009125,468.084869 280.711426,468.997131 280.295502,474.816315 
	C280.114471,477.349243 279.081024,478.398590 276.607666,478.380951 
	C270.611023,478.338226 264.613342,478.325348 258.617126,478.392487 
	C255.879684,478.423096 254.686478,477.206421 254.715042,474.491730 
	C254.767654,469.494873 254.718506,464.496887 254.711609,458.999512 
z"/>
</svg>